<svg xmlns="http://www.w3.org/2000/svg" xmlns:xlink="http://www.w3.org/1999/xlink" width="1620" zoomAndPan="magnify" viewBox="0 0 1215 809.999993" height="1080" preserveAspectRatio="xMidYMid meet" version="1.0"><defs><g/></defs><g fill="#000000" fill-opacity="1"><g transform="translate(52.943107, 87.360792)"><g><path d="M 36.203125 -19.84375 L 47.203125 -62.03125 L 66.015625 -62.03125 L 66.015625 0 L 54.40625 0 L 54.40625 -48.859375 L 42.1875 0 L 30.140625 0 L 17.765625 -48.765625 L 17.765625 0 L 6.15625 0 L 6.15625 -62.03125 L 24.859375 -62.03125 Z M 36.203125 -19.84375 "/></g></g></g><g fill="#000000" fill-opacity="1"><g transform="translate(125.07945, 87.360792)"><g><path d="M 23.734375 -45.90625 C 29.453125 -45.90625 33.695312 -45.171875 36.46875 -43.703125 C 39.238281 -42.234375 40.984375 -40.296875 41.703125 -37.890625 C 42.429688 -35.492188 42.765625 -32.332031 42.703125 -28.40625 L 42.625 -15.328125 C 42.5625 -11.234375 42.703125 -8.257812 43.046875 -6.40625 C 43.398438 -4.5625 44.125 -2.425781 45.21875 0 L 33.53125 0 C 33.238281 -0.632812 32.71875 -2.28125 31.96875 -4.9375 C 29.832031 -2.851562 27.625 -1.332031 25.34375 -0.375 C 23.0625 0.570312 20.617188 1.046875 18.015625 1.046875 C 13.566406 1.046875 9.972656 -0.179688 7.234375 -2.640625 C 4.492188 -5.097656 3.125 -8.289062 3.125 -12.21875 C 3.125 -15.507812 3.945312 -18.117188 5.59375 -20.046875 C 7.238281 -21.984375 9.242188 -23.382812 11.609375 -24.25 C 13.972656 -25.113281 16.773438 -25.863281 20.015625 -26.5 C 24.972656 -27.425781 28.640625 -28.351562 31.015625 -29.28125 L 31.015625 -31.1875 C 31.015625 -33.144531 30.4375 -34.570312 29.28125 -35.46875 C 28.125 -36.363281 26.015625 -36.8125 22.953125 -36.8125 C 20.585938 -36.8125 18.828125 -36.332031 17.671875 -35.375 C 16.515625 -34.425781 15.648438 -33.03125 15.078125 -31.1875 L 4.328125 -33.171875 C 5.484375 -37.566406 7.5625 -40.785156 10.5625 -42.828125 C 13.570312 -44.878906 17.960938 -45.90625 23.734375 -45.90625 Z M 23.5625 -19.65625 L 21.5625 -19.234375 C 17.175781 -18.304688 14.984375 -16.398438 14.984375 -13.515625 C 14.984375 -11.785156 15.601562 -10.328125 16.84375 -9.140625 C 18.09375 -7.953125 19.664062 -7.359375 21.5625 -7.359375 C 23.125 -7.359375 24.6875 -7.757812 26.25 -8.5625 C 27.8125 -9.375 29.023438 -10.445312 29.890625 -11.78125 C 30.640625 -12.988281 31.015625 -15.066406 31.015625 -18.015625 L 31.015625 -21.5625 C 28.765625 -20.875 26.28125 -20.238281 23.5625 -19.65625 Z M 23.5625 -19.65625 "/></g></g></g><g fill="#000000" fill-opacity="1"><g transform="translate(173.228044, 87.360792)"><g><path d="M 17.671875 -29.109375 L 31.625 -44.875 L 46.25 -44.875 L 30.921875 -28.5 L 47.296875 0 L 34.484375 0 L 23.21875 -20.1875 L 17.671875 -14.375 L 17.671875 0 L 5.796875 0 L 5.796875 -62.03125 L 17.671875 -62.03125 Z M 17.671875 -29.109375 "/></g></g></g><g fill="#000000" fill-opacity="1"><g transform="translate(221.376638, 87.360792)"><g><path d="M 23.390625 -45.90625 C 30.546875 -45.90625 35.882812 -43.582031 39.40625 -38.9375 C 42.9375 -34.289062 44.703125 -27.664062 44.703125 -19.0625 L 14.90625 -19.0625 C 15.019531 -16.050781 15.898438 -13.460938 17.546875 -11.296875 C 19.191406 -9.140625 21.570312 -8.0625 24.6875 -8.0625 C 26.65625 -8.0625 28.257812 -8.566406 29.5 -9.578125 C 30.738281 -10.585938 31.644531 -12.160156 32.21875 -14.296875 L 44.09375 -12.296875 C 42.59375 -7.910156 40.164062 -4.585938 36.8125 -2.328125 C 33.46875 -0.078125 29.367188 1.046875 24.515625 1.046875 C 17.296875 1.046875 11.835938 -1.117188 8.140625 -5.453125 C 6.410156 -7.472656 5.082031 -10.015625 4.15625 -13.078125 C 3.226562 -16.140625 2.765625 -19.171875 2.765625 -22.171875 C 2.765625 -26.273438 3.5 -30.128906 4.96875 -33.734375 C 6.445312 -37.347656 8.726562 -40.28125 11.8125 -42.53125 C 14.90625 -44.78125 18.765625 -45.90625 23.390625 -45.90625 Z M 15.15625 -26.328125 L 32.921875 -26.328125 C 32.859375 -29.972656 31.945312 -32.628906 30.1875 -34.296875 C 28.425781 -35.972656 26.363281 -36.8125 24 -36.8125 C 21.226562 -36.8125 19.0625 -35.816406 17.5 -33.828125 C 15.9375 -31.835938 15.15625 -29.335938 15.15625 -26.328125 Z M 15.15625 -26.328125 "/></g></g></g><g fill="#000000" fill-opacity="1"><g transform="translate(269.525232, 87.360792)"><g/></g></g><g fill="#000000" fill-opacity="1"><g transform="translate(293.599529, 87.360792)"><g><path d="M 23.734375 -45.90625 C 29.453125 -45.90625 33.695312 -45.171875 36.46875 -43.703125 C 39.238281 -42.234375 40.984375 -40.296875 41.703125 -37.890625 C 42.429688 -35.492188 42.765625 -32.332031 42.703125 -28.40625 L 42.625 -15.328125 C 42.5625 -11.234375 42.703125 -8.257812 43.046875 -6.40625 C 43.398438 -4.5625 44.125 -2.425781 45.21875 0 L 33.53125 0 C 33.238281 -0.632812 32.71875 -2.28125 31.96875 -4.9375 C 29.832031 -2.851562 27.625 -1.332031 25.34375 -0.375 C 23.0625 0.570312 20.617188 1.046875 18.015625 1.046875 C 13.566406 1.046875 9.972656 -0.179688 7.234375 -2.640625 C 4.492188 -5.097656 3.125 -8.289062 3.125 -12.21875 C 3.125 -15.507812 3.945312 -18.117188 5.59375 -20.046875 C 7.238281 -21.984375 9.242188 -23.382812 11.609375 -24.25 C 13.972656 -25.113281 16.773438 -25.863281 20.015625 -26.5 C 24.972656 -27.425781 28.640625 -28.351562 31.015625 -29.28125 L 31.015625 -31.1875 C 31.015625 -33.144531 30.4375 -34.570312 29.28125 -35.46875 C 28.125 -36.363281 26.015625 -36.8125 22.953125 -36.8125 C 20.585938 -36.8125 18.828125 -36.332031 17.671875 -35.375 C 16.515625 -34.425781 15.648438 -33.03125 15.078125 -31.1875 L 4.328125 -33.171875 C 5.484375 -37.566406 7.5625 -40.785156 10.5625 -42.828125 C 13.570312 -44.878906 17.960938 -45.90625 23.734375 -45.90625 Z M 23.5625 -19.65625 L 21.5625 -19.234375 C 17.175781 -18.304688 14.984375 -16.398438 14.984375 -13.515625 C 14.984375 -11.785156 15.601562 -10.328125 16.84375 -9.140625 C 18.09375 -7.953125 19.664062 -7.359375 21.5625 -7.359375 C 23.125 -7.359375 24.6875 -7.757812 26.25 -8.5625 C 27.8125 -9.375 29.023438 -10.445312 29.890625 -11.78125 C 30.640625 -12.988281 31.015625 -15.066406 31.015625 -18.015625 L 31.015625 -21.5625 C 28.765625 -20.875 26.28125 -20.238281 23.5625 -19.65625 Z M 23.5625 -19.65625 "/></g></g></g><g fill="#000000" fill-opacity="1"><g transform="translate(341.748123, 87.360792)"><g/></g></g><g fill="#000000" fill-opacity="1"><g transform="translate(365.82242, 87.360792)"><g><path d="M 17.578125 -39.671875 C 21.222656 -43.828125 25.585938 -45.90625 30.671875 -45.90625 C 34.128906 -45.90625 37.285156 -45.050781 40.140625 -43.34375 C 43.003906 -41.644531 45.285156 -39.0625 46.984375 -35.59375 C 48.691406 -32.132812 49.546875 -27.894531 49.546875 -22.875 C 49.546875 -17.675781 48.664062 -13.285156 46.90625 -9.703125 C 45.144531 -6.117188 42.832031 -3.429688 39.96875 -1.640625 C 37.113281 0.148438 34.039062 1.046875 30.75 1.046875 C 28.5 1.046875 26.085938 0.441406 23.515625 -0.765625 C 20.941406 -1.984375 18.707031 -3.921875 16.8125 -6.578125 L 16.8125 0 L 5.71875 0 L 5.71875 -62.03125 L 17.578125 -62.03125 Z M 17.5 -23.390625 C 17.5 -20.785156 17.6875 -18.660156 18.0625 -17.015625 C 18.4375 -15.367188 19.054688 -13.941406 19.921875 -12.734375 C 22.003906 -9.847656 24.660156 -8.40625 27.890625 -8.40625 C 30.429688 -8.40625 32.640625 -9.5 34.515625 -11.6875 C 36.390625 -13.882812 37.328125 -17.4375 37.328125 -22.34375 C 37.328125 -26.738281 36.535156 -30.25 34.953125 -32.875 C 33.367188 -35.5 30.84375 -36.8125 27.375 -36.8125 C 24.488281 -36.8125 22.117188 -35.671875 20.265625 -33.390625 C 18.421875 -31.109375 17.5 -27.773438 17.5 -23.390625 Z M 17.5 -23.390625 "/></g></g></g><g fill="#000000" fill-opacity="1"><g transform="translate(418.733945, 87.360792)"><g><path d="M 23.390625 -45.90625 C 30.546875 -45.90625 35.882812 -43.582031 39.40625 -38.9375 C 42.9375 -34.289062 44.703125 -27.664062 44.703125 -19.0625 L 14.90625 -19.0625 C 15.019531 -16.050781 15.898438 -13.460938 17.546875 -11.296875 C 19.191406 -9.140625 21.570312 -8.0625 24.6875 -8.0625 C 26.65625 -8.0625 28.257812 -8.566406 29.5 -9.578125 C 30.738281 -10.585938 31.644531 -12.160156 32.21875 -14.296875 L 44.09375 -12.296875 C 42.59375 -7.910156 40.164062 -4.585938 36.8125 -2.328125 C 33.46875 -0.078125 29.367188 1.046875 24.515625 1.046875 C 17.296875 1.046875 11.835938 -1.117188 8.140625 -5.453125 C 6.410156 -7.472656 5.082031 -10.015625 4.15625 -13.078125 C 3.226562 -16.140625 2.765625 -19.171875 2.765625 -22.171875 C 2.765625 -26.273438 3.5 -30.128906 4.96875 -33.734375 C 6.445312 -37.347656 8.726562 -40.28125 11.8125 -42.53125 C 14.90625 -44.78125 18.765625 -45.90625 23.390625 -45.90625 Z M 15.15625 -26.328125 L 32.921875 -26.328125 C 32.859375 -29.972656 31.945312 -32.628906 30.1875 -34.296875 C 28.425781 -35.972656 26.363281 -36.8125 24 -36.8125 C 21.226562 -36.8125 19.0625 -35.816406 17.5 -33.828125 C 15.9375 -31.835938 15.15625 -29.335938 15.15625 -26.328125 Z M 15.15625 -26.328125 "/></g></g></g><g fill="#000000" fill-opacity="1"><g transform="translate(466.882539, 87.360792)"><g><path d="M 23.734375 -45.90625 C 29.453125 -45.90625 33.695312 -45.171875 36.46875 -43.703125 C 39.238281 -42.234375 40.984375 -40.296875 41.703125 -37.890625 C 42.429688 -35.492188 42.765625 -32.332031 42.703125 -28.40625 L 42.625 -15.328125 C 42.5625 -11.234375 42.703125 -8.257812 43.046875 -6.40625 C 43.398438 -4.5625 44.125 -2.425781 45.21875 0 L 33.53125 0 C 33.238281 -0.632812 32.71875 -2.28125 31.96875 -4.9375 C 29.832031 -2.851562 27.625 -1.332031 25.34375 -0.375 C 23.0625 0.570312 20.617188 1.046875 18.015625 1.046875 C 13.566406 1.046875 9.972656 -0.179688 7.234375 -2.640625 C 4.492188 -5.097656 3.125 -8.289062 3.125 -12.21875 C 3.125 -15.507812 3.945312 -18.117188 5.59375 -20.046875 C 7.238281 -21.984375 9.242188 -23.382812 11.609375 -24.25 C 13.972656 -25.113281 16.773438 -25.863281 20.015625 -26.5 C 24.972656 -27.425781 28.640625 -28.351562 31.015625 -29.28125 L 31.015625 -31.1875 C 31.015625 -33.144531 30.4375 -34.570312 29.28125 -35.46875 C 28.125 -36.363281 26.015625 -36.8125 22.953125 -36.8125 C 20.585938 -36.8125 18.828125 -36.332031 17.671875 -35.375 C 16.515625 -34.425781 15.648438 -33.03125 15.078125 -31.1875 L 4.328125 -33.171875 C 5.484375 -37.566406 7.5625 -40.785156 10.5625 -42.828125 C 13.570312 -44.878906 17.960938 -45.90625 23.734375 -45.90625 Z M 23.5625 -19.65625 L 21.5625 -19.234375 C 17.175781 -18.304688 14.984375 -16.398438 14.984375 -13.515625 C 14.984375 -11.785156 15.601562 -10.328125 16.84375 -9.140625 C 18.09375 -7.953125 19.664062 -7.359375 21.5625 -7.359375 C 23.125 -7.359375 24.6875 -7.757812 26.25 -8.5625 C 27.8125 -9.375 29.023438 -10.445312 29.890625 -11.78125 C 30.640625 -12.988281 31.015625 -15.066406 31.015625 -18.015625 L 31.015625 -21.5625 C 28.765625 -20.875 26.28125 -20.238281 23.5625 -19.65625 Z M 23.5625 -19.65625 "/></g></g></g><g fill="#000000" fill-opacity="1"><g transform="translate(515.031133, 87.360792)"><g><path d="M 9.015625 -39.15625 C 12.878906 -43.65625 18.363281 -45.90625 25.46875 -45.90625 C 36.15625 -45.90625 42.828125 -41.144531 45.484375 -31.625 L 33.78125 -29.546875 C 32.800781 -34.273438 30.085938 -36.640625 25.640625 -36.640625 C 22.640625 -36.640625 20.257812 -35.597656 18.5 -33.515625 C 16.738281 -31.441406 15.859375 -28.066406 15.859375 -23.390625 C 15.859375 -18.828125 16.609375 -15.226562 18.109375 -12.59375 C 19.609375 -9.96875 22.175781 -8.65625 25.8125 -8.65625 C 28.175781 -8.65625 30.066406 -9.363281 31.484375 -10.78125 C 32.898438 -12.195312 33.867188 -14.347656 34.390625 -17.234375 L 46.078125 -15.25 C 43.660156 -4.382812 36.703125 1.046875 25.203125 1.046875 C 18.390625 1.046875 13.132812 -1.035156 9.4375 -5.203125 C 7.53125 -7.335938 6.085938 -9.929688 5.109375 -12.984375 C 4.128906 -16.046875 3.640625 -19.195312 3.640625 -22.4375 C 3.640625 -25.78125 4.097656 -28.894531 5.015625 -31.78125 C 5.941406 -34.675781 7.273438 -37.132812 9.015625 -39.15625 Z M 9.015625 -39.15625 "/></g></g></g><g fill="#000000" fill-opacity="1"><g transform="translate(563.179727, 87.360792)"><g><path d="M 18.015625 -39.15625 C 20.035156 -41.519531 22.15625 -43.234375 24.375 -44.296875 C 26.601562 -45.367188 29.019531 -45.90625 31.625 -45.90625 C 34.101562 -45.90625 36.304688 -45.53125 38.234375 -44.78125 C 40.171875 -44.03125 41.773438 -43.050781 43.046875 -41.84375 C 45.648438 -39.300781 46.953125 -34.625 46.953125 -27.8125 L 46.953125 0 L 35.078125 0 L 35.078125 -25.296875 C 35.078125 -28.003906 34.90625 -30.164062 34.5625 -31.78125 C 34.21875 -33.40625 33.523438 -34.648438 32.484375 -35.515625 C 31.441406 -36.378906 29.851562 -36.8125 27.71875 -36.8125 C 23.96875 -36.8125 21.410156 -35.597656 20.046875 -33.171875 C 18.691406 -30.753906 18.015625 -27.519531 18.015625 -23.46875 L 18.015625 0 L 6.15625 0 L 6.15625 -62.03125 L 18.015625 -62.03125 Z M 18.015625 -39.15625 "/></g></g></g><g fill="#000000" fill-opacity="1"><g transform="translate(616.091252, 87.360792)"><g/></g></g><g fill="#000000" fill-opacity="1"><g transform="translate(640.165549, 87.360792)"><g><path d="M 20.265625 -15.5 L 20.4375 -15.5 L 28.0625 -44.875 L 39.59375 -44.875 L 46.953125 -15.5 L 47.125 -15.5 L 55.609375 -44.875 L 67.3125 -44.875 L 52.921875 0 L 41.5 0 L 33.875 -28.9375 L 33.703125 -28.9375 L 26.15625 0 L 14.640625 0 L 0.34375 -44.875 L 11.953125 -44.875 Z M 20.265625 -15.5 "/></g></g></g><g fill="#000000" fill-opacity="1"><g transform="translate(707.538962, 87.360792)"><g><path d="M 18.109375 -51.015625 L 6.234375 -51.015625 L 6.234375 -62.03125 L 18.109375 -62.03125 Z M 18.109375 0 L 6.234375 0 L 6.234375 -44.875 L 18.109375 -44.875 Z M 18.109375 0 "/></g></g></g><g fill="#000000" fill-opacity="1"><g transform="translate(731.613259, 87.360792)"><g><path d="M 18.71875 -44.875 L 26.765625 -44.875 L 26.765625 -35.421875 L 18.71875 -35.421875 L 18.71875 -15.671875 C 18.71875 -13.773438 18.785156 -12.363281 18.921875 -11.4375 C 19.066406 -10.507812 19.367188 -9.84375 19.828125 -9.4375 C 20.296875 -9.03125 21.019531 -8.828125 22 -8.828125 C 23.21875 -8.828125 24.804688 -9.207031 26.765625 -9.96875 L 27.8125 -0.78125 C 26.59375 -0.195312 25.117188 0.25 23.390625 0.5625 C 21.660156 0.882812 20.015625 1.046875 18.453125 1.046875 C 16.203125 1.046875 14.207031 0.671875 12.46875 -0.078125 C 10.738281 -0.835938 9.46875 -1.851562 8.65625 -3.125 C 7.789062 -4.5625 7.253906 -6.160156 7.046875 -7.921875 C 6.847656 -9.679688 6.75 -11.890625 6.75 -14.546875 L 6.75 -35.421875 L 1.296875 -35.421875 L 1.296875 -44.875 L 6.75 -44.875 L 6.75 -53.796875 L 18.71875 -60.8125 Z M 18.71875 -44.875 "/></g></g></g><g fill="#000000" fill-opacity="1"><g transform="translate(760.450488, 87.360792)"><g><path d="M 18.015625 -39.15625 C 20.035156 -41.519531 22.15625 -43.234375 24.375 -44.296875 C 26.601562 -45.367188 29.019531 -45.90625 31.625 -45.90625 C 34.101562 -45.90625 36.304688 -45.53125 38.234375 -44.78125 C 40.171875 -44.03125 41.773438 -43.050781 43.046875 -41.84375 C 45.648438 -39.300781 46.953125 -34.625 46.953125 -27.8125 L 46.953125 0 L 35.078125 0 L 35.078125 -25.296875 C 35.078125 -28.003906 34.90625 -30.164062 34.5625 -31.78125 C 34.21875 -33.40625 33.523438 -34.648438 32.484375 -35.515625 C 31.441406 -36.378906 29.851562 -36.8125 27.71875 -36.8125 C 23.96875 -36.8125 21.410156 -35.597656 20.046875 -33.171875 C 18.691406 -30.753906 18.015625 -27.519531 18.015625 -23.46875 L 18.015625 0 L 6.15625 0 L 6.15625 -62.03125 L 18.015625 -62.03125 Z M 18.015625 -39.15625 "/></g></g></g><g fill="#000000" fill-opacity="1"><g transform="translate(813.362013, 87.360792)"><g/></g></g><g fill="#000000" fill-opacity="1"><g transform="translate(837.43631, 87.360792)"><g><path d="M 18.109375 0 L 6.234375 0 L 6.234375 -62.03125 L 18.109375 -62.03125 Z M 18.109375 0 "/></g></g></g><g fill="#000000" fill-opacity="1"><g transform="translate(861.510607, 87.360792)"><g><path d="M 23.390625 -45.90625 C 30.546875 -45.90625 35.882812 -43.582031 39.40625 -38.9375 C 42.9375 -34.289062 44.703125 -27.664062 44.703125 -19.0625 L 14.90625 -19.0625 C 15.019531 -16.050781 15.898438 -13.460938 17.546875 -11.296875 C 19.191406 -9.140625 21.570312 -8.0625 24.6875 -8.0625 C 26.65625 -8.0625 28.257812 -8.566406 29.5 -9.578125 C 30.738281 -10.585938 31.644531 -12.160156 32.21875 -14.296875 L 44.09375 -12.296875 C 42.59375 -7.910156 40.164062 -4.585938 36.8125 -2.328125 C 33.46875 -0.078125 29.367188 1.046875 24.515625 1.046875 C 17.296875 1.046875 11.835938 -1.117188 8.140625 -5.453125 C 6.410156 -7.472656 5.082031 -10.015625 4.15625 -13.078125 C 3.226562 -16.140625 2.765625 -19.171875 2.765625 -22.171875 C 2.765625 -26.273438 3.5 -30.128906 4.96875 -33.734375 C 6.445312 -37.347656 8.726562 -40.28125 11.8125 -42.53125 C 14.90625 -44.78125 18.765625 -45.90625 23.390625 -45.90625 Z M 15.15625 -26.328125 L 32.921875 -26.328125 C 32.859375 -29.972656 31.945312 -32.628906 30.1875 -34.296875 C 28.425781 -35.972656 26.363281 -36.8125 24 -36.8125 C 21.226562 -36.8125 19.0625 -35.816406 17.5 -33.828125 C 15.9375 -31.835938 15.15625 -29.335938 15.15625 -26.328125 Z M 15.15625 -26.328125 "/></g></g></g><g fill="#000000" fill-opacity="1"><g transform="translate(909.659201, 87.360792)"><g><path d="M 22.515625 -45.90625 C 25.578125 -45.90625 28.25 -45.238281 30.53125 -43.90625 C 32.8125 -42.582031 34.675781 -40.828125 36.125 -38.640625 L 36.296875 -38.640625 L 36.296875 -44.875 L 47.390625 -44.875 L 47.390625 -3.8125 C 47.390625 1.207031 46.8125 5.289062 45.65625 8.4375 C 44.5 11.59375 42.375 14.003906 39.28125 15.671875 C 36.195312 17.347656 31.796875 18.1875 26.078125 18.1875 C 18.796875 18.1875 13.492188 16.898438 10.171875 14.328125 C 6.859375 11.765625 5.171875 7.96875 5.109375 2.9375 L 18.71875 4.59375 C 18.945312 6.382812 19.625 7.582031 20.75 8.1875 C 21.875 8.789062 23.503906 9.09375 25.640625 9.09375 C 29.335938 9.09375 31.90625 8.441406 33.34375 7.140625 C 34.789062 5.847656 35.515625 3.582031 35.515625 0.34375 L 35.515625 -7.28125 L 35.34375 -7.28125 C 33.84375 -5.082031 31.921875 -3.316406 29.578125 -1.984375 C 27.242188 -0.660156 24.75 0 22.09375 0 C 18.394531 0 15.144531 -0.976562 12.34375 -2.9375 C 9.539062 -4.90625 7.375 -7.617188 5.84375 -11.078125 C 4.3125 -14.546875 3.546875 -18.421875 3.546875 -22.703125 C 3.546875 -28.296875 4.515625 -32.828125 6.453125 -36.296875 C 8.390625 -39.765625 10.800781 -42.234375 13.6875 -43.703125 C 16.570312 -45.171875 19.515625 -45.90625 22.515625 -45.90625 Z M 15.765625 -23.390625 C 15.765625 -19.640625 16.515625 -16.421875 18.015625 -13.734375 C 19.515625 -11.046875 21.96875 -9.703125 25.375 -9.703125 C 27.976562 -9.703125 30.363281 -10.710938 32.53125 -12.734375 C 34.695312 -14.753906 35.78125 -18.21875 35.78125 -23.125 C 35.78125 -26.769531 34.984375 -29.960938 33.390625 -32.703125 C 31.804688 -35.441406 29.164062 -36.8125 25.46875 -36.8125 C 21.882812 -36.8125 19.367188 -35.425781 17.921875 -32.65625 C 16.484375 -29.882812 15.765625 -26.796875 15.765625 -23.390625 Z M 15.765625 -23.390625 "/></g></g></g><g fill="#000000" fill-opacity="1"><g transform="translate(962.570726, 87.360792)"><g><path d="M 26.59375 -45.90625 C 31.445312 -45.90625 35.632812 -44.804688 39.15625 -42.609375 C 42.675781 -40.421875 45.332031 -37.535156 47.125 -33.953125 C 48.914062 -30.378906 49.8125 -26.597656 49.8125 -22.609375 C 49.8125 -18.453125 48.867188 -14.566406 46.984375 -10.953125 C 45.109375 -7.347656 42.425781 -4.445312 38.9375 -2.25 C 35.445312 -0.0507812 31.363281 1.046875 26.6875 1.046875 C 22.695312 1.046875 18.941406 0.222656 15.421875 -1.421875 C 11.898438 -3.066406 9.023438 -5.691406 6.796875 -9.296875 C 4.578125 -12.910156 3.46875 -17.492188 3.46875 -23.046875 C 3.46875 -26.910156 4.347656 -30.585938 6.109375 -34.078125 C 7.867188 -37.578125 10.492188 -40.421875 13.984375 -42.609375 C 17.484375 -44.804688 21.6875 -45.90625 26.59375 -45.90625 Z M 15.671875 -22.4375 C 15.671875 -17.925781 16.722656 -14.5 18.828125 -12.15625 C 20.941406 -9.820312 23.53125 -8.65625 26.59375 -8.65625 C 29.65625 -8.65625 32.253906 -9.8125 34.390625 -12.125 C 36.523438 -14.4375 37.59375 -17.898438 37.59375 -22.515625 C 37.59375 -26.796875 36.566406 -30.144531 34.515625 -32.5625 C 32.460938 -34.988281 29.789062 -36.203125 26.5 -36.203125 C 23.5 -36.203125 20.941406 -35.019531 18.828125 -32.65625 C 16.722656 -30.289062 15.671875 -26.882812 15.671875 -22.4375 Z M 15.671875 -22.4375 "/></g></g></g><g fill="#000000" fill-opacity="1"><g transform="translate(52.943107, 164.337217)"><g><path d="M 17.578125 -39.671875 C 21.222656 -43.828125 25.585938 -45.90625 30.671875 -45.90625 C 34.128906 -45.90625 37.285156 -45.050781 40.140625 -43.34375 C 43.003906 -41.644531 45.285156 -39.0625 46.984375 -35.59375 C 48.691406 -32.132812 49.546875 -27.894531 49.546875 -22.875 C 49.546875 -17.675781 48.664062 -13.285156 46.90625 -9.703125 C 45.144531 -6.117188 42.832031 -3.429688 39.96875 -1.640625 C 37.113281 0.148438 34.039062 1.046875 30.75 1.046875 C 28.5 1.046875 26.085938 0.441406 23.515625 -0.765625 C 20.941406 -1.984375 18.707031 -3.921875 16.8125 -6.578125 L 16.8125 0 L 5.71875 0 L 5.71875 -62.03125 L 17.578125 -62.03125 Z M 17.5 -23.390625 C 17.5 -20.785156 17.6875 -18.660156 18.0625 -17.015625 C 18.4375 -15.367188 19.054688 -13.941406 19.921875 -12.734375 C 22.003906 -9.847656 24.660156 -8.40625 27.890625 -8.40625 C 30.429688 -8.40625 32.640625 -9.5 34.515625 -11.6875 C 36.390625 -13.882812 37.328125 -17.4375 37.328125 -22.34375 C 37.328125 -26.738281 36.535156 -30.25 34.953125 -32.875 C 33.367188 -35.5 30.84375 -36.8125 27.375 -36.8125 C 24.488281 -36.8125 22.117188 -35.671875 20.265625 -33.390625 C 18.421875 -31.109375 17.5 -27.773438 17.5 -23.390625 Z M 17.5 -23.390625 "/></g></g></g><g fill="#000000" fill-opacity="1"><g transform="translate(105.854633, 164.337217)"><g><path d="M 27.03125 -45.90625 C 28.300781 -45.90625 29.640625 -45.703125 31.046875 -45.296875 C 32.460938 -44.898438 33.722656 -44.382812 34.828125 -43.75 L 31.09375 -33.34375 C 29.070312 -34.613281 27.222656 -35.25 25.546875 -35.25 C 23.296875 -35.25 21.59375 -34.484375 20.4375 -32.953125 C 19.289062 -31.429688 18.523438 -29.296875 18.140625 -26.546875 C 17.765625 -23.804688 17.578125 -20.15625 17.578125 -15.59375 L 17.578125 0 L 5.71875 0 L 5.71875 -44.875 L 16.71875 -44.875 L 16.71875 -38.546875 L 16.890625 -38.546875 C 18.335938 -40.972656 19.78125 -42.804688 21.21875 -44.046875 C 22.664062 -45.285156 24.601562 -45.90625 27.03125 -45.90625 Z M 27.03125 -45.90625 "/></g></g></g><g fill="#000000" fill-opacity="1"><g transform="translate(139.541339, 164.337217)"><g><path d="M 18.109375 -51.015625 L 6.234375 -51.015625 L 6.234375 -62.03125 L 18.109375 -62.03125 Z M 18.109375 0 L 6.234375 0 L 6.234375 -44.875 L 18.109375 -44.875 Z M 18.109375 0 "/></g></g></g><g fill="#000000" fill-opacity="1"><g transform="translate(163.615636, 164.337217)"><g><path d="M 9.015625 -39.15625 C 12.878906 -43.65625 18.363281 -45.90625 25.46875 -45.90625 C 36.15625 -45.90625 42.828125 -41.144531 45.484375 -31.625 L 33.78125 -29.546875 C 32.800781 -34.273438 30.085938 -36.640625 25.640625 -36.640625 C 22.640625 -36.640625 20.257812 -35.597656 18.5 -33.515625 C 16.738281 -31.441406 15.859375 -28.066406 15.859375 -23.390625 C 15.859375 -18.828125 16.609375 -15.226562 18.109375 -12.59375 C 19.609375 -9.96875 22.175781 -8.65625 25.8125 -8.65625 C 28.175781 -8.65625 30.066406 -9.363281 31.484375 -10.78125 C 32.898438 -12.195312 33.867188 -14.347656 34.390625 -17.234375 L 46.078125 -15.25 C 43.660156 -4.382812 36.703125 1.046875 25.203125 1.046875 C 18.390625 1.046875 13.132812 -1.035156 9.4375 -5.203125 C 7.53125 -7.335938 6.085938 -9.929688 5.109375 -12.984375 C 4.128906 -16.046875 3.640625 -19.195312 3.640625 -22.4375 C 3.640625 -25.78125 4.097656 -28.894531 5.015625 -31.78125 C 5.941406 -34.675781 7.273438 -37.132812 9.015625 -39.15625 Z M 9.015625 -39.15625 "/></g></g></g><g fill="#000000" fill-opacity="1"><g transform="translate(211.76423, 164.337217)"><g><path d="M 17.671875 -29.109375 L 31.625 -44.875 L 46.25 -44.875 L 30.921875 -28.5 L 47.296875 0 L 34.484375 0 L 23.21875 -20.1875 L 17.671875 -14.375 L 17.671875 0 L 5.796875 0 L 5.796875 -62.03125 L 17.671875 -62.03125 Z M 17.671875 -29.109375 "/></g></g></g><g fill="#000000" fill-opacity="1"><g transform="translate(259.912824, 164.337217)"><g><path d="M 22.609375 -45.90625 C 28.210938 -45.90625 32.613281 -44.984375 35.8125 -43.140625 C 39.019531 -41.296875 41.234375 -38.265625 42.453125 -34.046875 L 31.1875 -31.96875 C 30.664062 -33.8125 29.722656 -35.179688 28.359375 -36.078125 C 27.003906 -36.972656 25.117188 -37.421875 22.703125 -37.421875 C 17.328125 -37.421875 14.640625 -36.179688 14.640625 -33.703125 C 14.640625 -32.484375 15.519531 -31.515625 17.28125 -30.796875 C 19.039062 -30.078125 21.597656 -29.34375 24.953125 -28.59375 C 29.046875 -27.664062 32.390625 -26.722656 34.984375 -25.765625 C 37.585938 -24.816406 39.726562 -23.40625 41.40625 -21.53125 C 43.082031 -19.65625 43.921875 -17.15625 43.921875 -14.03125 C 43.921875 -11.488281 43.210938 -9.078125 41.796875 -6.796875 C 40.378906 -4.515625 38.140625 -2.632812 35.078125 -1.15625 C 32.015625 0.3125 28.144531 1.046875 23.46875 1.046875 C 18.21875 1.046875 13.582031 -0.078125 9.5625 -2.328125 C 5.550781 -4.585938 3.03125 -8.085938 2 -12.828125 L 13.859375 -14.640625 C 14.953125 -9.847656 18.15625 -7.453125 23.46875 -7.453125 C 25.550781 -7.453125 27.5 -7.8125 29.3125 -8.53125 C 31.132812 -9.25 32.046875 -10.535156 32.046875 -12.390625 C 32.046875 -13.597656 31.628906 -14.445312 30.796875 -14.9375 C 29.960938 -15.425781 28.617188 -15.875 26.765625 -16.28125 C 21.273438 -17.5 17 -18.625 13.9375 -19.65625 C 10.882812 -20.695312 8.40625 -22.195312 6.5 -24.15625 C 4.59375 -26.125 3.640625 -28.785156 3.640625 -32.140625 C 3.640625 -36.816406 5.425781 -40.28125 9 -42.53125 C 12.582031 -44.78125 17.117188 -45.90625 22.609375 -45.90625 Z M 22.609375 -45.90625 "/></g></g></g><g fill="#000000" fill-opacity="1"><g transform="translate(52.943107, 314.238678)"><g><path d="M 2.796875 -2.125 C 2.796875 -4.6875 3.070312 -6.75 3.625 -8.3125 C 4.1875 -9.875 5.144531 -11.332031 6.5 -12.6875 C 7.851562 -14.039062 10.007812 -15.796875 12.96875 -17.953125 L 18.078125 -21.65625 C 19.953125 -23.03125 21.484375 -24.296875 22.671875 -25.453125 C 23.859375 -26.617188 24.789062 -27.882812 25.46875 -29.25 C 26.15625 -30.613281 26.5 -32.140625 26.5 -33.828125 C 26.5 -36.578125 25.769531 -38.648438 24.3125 -40.046875 C 22.851562 -41.441406 20.570312 -42.140625 17.46875 -42.140625 C 15.019531 -42.140625 12.84375 -41.566406 10.9375 -40.421875 C 9.03125 -39.285156 7.507812 -37.671875 6.375 -35.578125 L 5.640625 -35.453125 L 2.375 -38.875 C 3.9375 -41.40625 5.988281 -43.394531 8.53125 -44.84375 C 11.082031 -46.289062 14.0625 -47.015625 17.46875 -47.015625 C 20.769531 -47.015625 23.507812 -46.453125 25.6875 -45.328125 C 27.863281 -44.210938 29.46875 -42.664062 30.5 -40.6875 C 31.539062 -38.71875 32.0625 -36.429688 32.0625 -33.828125 C 32.0625 -31.753906 31.625 -29.816406 30.75 -28.015625 C 29.882812 -26.222656 28.660156 -24.535156 27.078125 -22.953125 C 25.492188 -21.367188 23.507812 -19.703125 21.125 -17.953125 L 15.953125 -14.171875 C 14.023438 -12.753906 12.539062 -11.546875 11.5 -10.546875 C 10.46875 -9.554688 9.710938 -8.59375 9.234375 -7.65625 C 8.765625 -6.71875 8.53125 -5.664062 8.53125 -4.5 L 32.0625 -4.5 L 32.0625 0 L 2.796875 0 Z M 2.796875 -2.125 "/></g></g></g><g fill="#000000" fill-opacity="1"><g transform="translate(88.554125, 314.238678)"><g><path d="M 2.796875 -2.125 C 2.796875 -4.6875 3.070312 -6.75 3.625 -8.3125 C 4.1875 -9.875 5.144531 -11.332031 6.5 -12.6875 C 7.851562 -14.039062 10.007812 -15.796875 12.96875 -17.953125 L 18.078125 -21.65625 C 19.953125 -23.03125 21.484375 -24.296875 22.671875 -25.453125 C 23.859375 -26.617188 24.789062 -27.882812 25.46875 -29.25 C 26.15625 -30.613281 26.5 -32.140625 26.5 -33.828125 C 26.5 -36.578125 25.769531 -38.648438 24.3125 -40.046875 C 22.851562 -41.441406 20.570312 -42.140625 17.46875 -42.140625 C 15.019531 -42.140625 12.84375 -41.566406 10.9375 -40.421875 C 9.03125 -39.285156 7.507812 -37.671875 6.375 -35.578125 L 5.640625 -35.453125 L 2.375 -38.875 C 3.9375 -41.40625 5.988281 -43.394531 8.53125 -44.84375 C 11.082031 -46.289062 14.0625 -47.015625 17.46875 -47.015625 C 20.769531 -47.015625 23.507812 -46.453125 25.6875 -45.328125 C 27.863281 -44.210938 29.46875 -42.664062 30.5 -40.6875 C 31.539062 -38.71875 32.0625 -36.429688 32.0625 -33.828125 C 32.0625 -31.753906 31.625 -29.816406 30.75 -28.015625 C 29.882812 -26.222656 28.660156 -24.535156 27.078125 -22.953125 C 25.492188 -21.367188 23.507812 -19.703125 21.125 -17.953125 L 15.953125 -14.171875 C 14.023438 -12.753906 12.539062 -11.546875 11.5 -10.546875 C 10.46875 -9.554688 9.710938 -8.59375 9.234375 -7.65625 C 8.765625 -6.71875 8.53125 -5.664062 8.53125 -4.5 L 32.0625 -4.5 L 32.0625 0 L 2.796875 0 Z M 2.796875 -2.125 "/></g></g></g><g fill="#000000" fill-opacity="1"><g transform="translate(124.165144, 314.238678)"><g/></g></g><g fill="#000000" fill-opacity="1"><g transform="translate(140.069709, 314.238678)"><g><path d="M 15.3125 0.671875 C 13.007812 0.671875 10.894531 0.328125 8.96875 -0.359375 C 7.050781 -1.046875 5.429688 -1.984375 4.109375 -3.171875 C 2.785156 -4.359375 1.816406 -5.671875 1.203125 -7.109375 L 4.03125 -10.8125 L 4.8125 -10.8125 C 5.75 -8.820312 7.117188 -7.25 8.921875 -6.09375 C 10.734375 -4.945312 12.863281 -4.375 15.3125 -4.375 C 17.300781 -4.375 18.914062 -4.695312 20.15625 -5.34375 C 21.40625 -5.988281 22.34375 -7.054688 22.96875 -8.546875 C 23.59375 -10.035156 23.90625 -12.046875 23.90625 -14.578125 L 23.90625 -46.359375 L 29.328125 -46.359375 L 29.328125 -14.484375 C 29.328125 -9.242188 28.160156 -5.40625 25.828125 -2.96875 C 23.492188 -0.539062 19.988281 0.671875 15.3125 0.671875 Z M 15.3125 0.671875 "/></g></g></g><g fill="#000000" fill-opacity="1"><g transform="translate(175.965899, 314.238678)"><g><path d="M 17.28125 0.671875 C 13.320312 0.671875 10.375 -0.375 8.4375 -2.46875 C 6.507812 -4.5625 5.546875 -7.628906 5.546875 -11.671875 L 5.546875 -34.96875 L 10.71875 -34.96875 L 10.71875 -11.796875 C 10.71875 -6.492188 13.210938 -3.84375 18.203125 -3.84375 C 21.367188 -3.84375 23.867188 -4.875 25.703125 -6.9375 C 27.546875 -9.007812 28.46875 -12.375 28.46875 -17.03125 L 28.46875 -34.96875 L 33.640625 -34.96875 L 33.640625 0 L 28.765625 0 L 28.765625 -5.484375 L 28.09375 -5.640625 C 26.882812 -3.503906 25.441406 -1.914062 23.765625 -0.875 C 22.085938 0.15625 19.925781 0.671875 17.28125 0.671875 Z M 17.28125 0.671875 "/></g></g></g><g fill="#000000" fill-opacity="1"><g transform="translate(215.663978, 314.238678)"><g><path d="M 6.09375 0 L 6.09375 -34.96875 L 11 -34.96875 L 11 -29.484375 L 11.671875 -29.328125 C 12.828125 -31.378906 14.304688 -32.941406 16.109375 -34.015625 C 17.921875 -35.097656 20.128906 -35.640625 22.734375 -35.640625 C 26.941406 -35.640625 29.988281 -34.566406 31.875 -32.421875 C 33.769531 -30.273438 34.71875 -26.972656 34.71875 -22.515625 L 34.71875 0 L 29.546875 0 L 29.546875 -22.390625 C 29.546875 -24.503906 29.273438 -26.195312 28.734375 -27.46875 C 28.203125 -28.75 27.367188 -29.679688 26.234375 -30.265625 C 25.109375 -30.847656 23.625 -31.140625 21.78125 -31.140625 C 18.632812 -31.140625 16.09375 -30.097656 14.15625 -28.015625 C 12.21875 -25.929688 11.25 -22.578125 11.25 -17.953125 L 11.25 0 Z M 6.09375 0 "/></g></g></g><g fill="#000000" fill-opacity="1"><g transform="translate(255.95577, 314.238678)"><g/></g></g><g fill="#000000" fill-opacity="1"><g transform="translate(271.860335, 314.238678)"><g><path d="M 2.796875 -2.125 C 2.796875 -4.6875 3.070312 -6.75 3.625 -8.3125 C 4.1875 -9.875 5.144531 -11.332031 6.5 -12.6875 C 7.851562 -14.039062 10.007812 -15.796875 12.96875 -17.953125 L 18.078125 -21.65625 C 19.953125 -23.03125 21.484375 -24.296875 22.671875 -25.453125 C 23.859375 -26.617188 24.789062 -27.882812 25.46875 -29.25 C 26.15625 -30.613281 26.5 -32.140625 26.5 -33.828125 C 26.5 -36.578125 25.769531 -38.648438 24.3125 -40.046875 C 22.851562 -41.441406 20.570312 -42.140625 17.46875 -42.140625 C 15.019531 -42.140625 12.84375 -41.566406 10.9375 -40.421875 C 9.03125 -39.285156 7.507812 -37.671875 6.375 -35.578125 L 5.640625 -35.453125 L 2.375 -38.875 C 3.9375 -41.40625 5.988281 -43.394531 8.53125 -44.84375 C 11.082031 -46.289062 14.0625 -47.015625 17.46875 -47.015625 C 20.769531 -47.015625 23.507812 -46.453125 25.6875 -45.328125 C 27.863281 -44.210938 29.46875 -42.664062 30.5 -40.6875 C 31.539062 -38.71875 32.0625 -36.429688 32.0625 -33.828125 C 32.0625 -31.753906 31.625 -29.816406 30.75 -28.015625 C 29.882812 -26.222656 28.660156 -24.535156 27.078125 -22.953125 C 25.492188 -21.367188 23.507812 -19.703125 21.125 -17.953125 L 15.953125 -14.171875 C 14.023438 -12.753906 12.539062 -11.546875 11.5 -10.546875 C 10.46875 -9.554688 9.710938 -8.59375 9.234375 -7.65625 C 8.765625 -6.71875 8.53125 -5.664062 8.53125 -4.5 L 32.0625 -4.5 L 32.0625 0 L 2.796875 0 Z M 2.796875 -2.125 "/></g></g></g><g fill="#000000" fill-opacity="1"><g transform="translate(307.471353, 314.238678)"><g><path d="M 22.796875 0.671875 C 19.390625 0.671875 16.332031 -0.144531 13.625 -1.78125 C 10.925781 -3.425781 8.769531 -6.03125 7.15625 -9.59375 C 5.550781 -13.15625 4.75 -17.679688 4.75 -23.171875 C 4.75 -28.671875 5.550781 -33.203125 7.15625 -36.765625 C 8.769531 -40.328125 10.925781 -42.925781 13.625 -44.5625 C 16.332031 -46.195312 19.390625 -47.015625 22.796875 -47.015625 C 26.203125 -47.015625 29.253906 -46.195312 31.953125 -44.5625 C 34.660156 -42.925781 36.8125 -40.328125 38.40625 -36.765625 C 40.007812 -33.203125 40.8125 -28.671875 40.8125 -23.171875 C 40.8125 -17.679688 40.007812 -13.15625 38.40625 -9.59375 C 36.8125 -6.03125 34.660156 -3.425781 31.953125 -1.78125 C 29.253906 -0.144531 26.203125 0.671875 22.796875 0.671875 Z M 22.796875 -4.375 C 26.835938 -4.375 29.894531 -5.828125 31.96875 -8.734375 C 34.050781 -11.640625 35.09375 -16.453125 35.09375 -23.171875 C 35.09375 -29.898438 34.050781 -34.71875 31.96875 -37.625 C 29.894531 -40.53125 26.835938 -41.984375 22.796875 -41.984375 C 20.128906 -41.984375 17.882812 -41.367188 16.0625 -40.140625 C 14.25 -38.910156 12.863281 -36.910156 11.90625 -34.140625 C 10.945312 -31.378906 10.46875 -27.722656 10.46875 -23.171875 C 10.46875 -18.628906 10.945312 -14.972656 11.90625 -12.203125 C 12.863281 -9.429688 14.25 -7.429688 16.0625 -6.203125 C 17.882812 -4.984375 20.128906 -4.375 22.796875 -4.375 Z M 22.796875 -4.375 "/></g></g></g><g fill="#000000" fill-opacity="1"><g transform="translate(353.030646, 314.238678)"><g><path d="M 2.796875 -2.125 C 2.796875 -4.6875 3.070312 -6.75 3.625 -8.3125 C 4.1875 -9.875 5.144531 -11.332031 6.5 -12.6875 C 7.851562 -14.039062 10.007812 -15.796875 12.96875 -17.953125 L 18.078125 -21.65625 C 19.953125 -23.03125 21.484375 -24.296875 22.671875 -25.453125 C 23.859375 -26.617188 24.789062 -27.882812 25.46875 -29.25 C 26.15625 -30.613281 26.5 -32.140625 26.5 -33.828125 C 26.5 -36.578125 25.769531 -38.648438 24.3125 -40.046875 C 22.851562 -41.441406 20.570312 -42.140625 17.46875 -42.140625 C 15.019531 -42.140625 12.84375 -41.566406 10.9375 -40.421875 C 9.03125 -39.285156 7.507812 -37.671875 6.375 -35.578125 L 5.640625 -35.453125 L 2.375 -38.875 C 3.9375 -41.40625 5.988281 -43.394531 8.53125 -44.84375 C 11.082031 -46.289062 14.0625 -47.015625 17.46875 -47.015625 C 20.769531 -47.015625 23.507812 -46.453125 25.6875 -45.328125 C 27.863281 -44.210938 29.46875 -42.664062 30.5 -40.6875 C 31.539062 -38.71875 32.0625 -36.429688 32.0625 -33.828125 C 32.0625 -31.753906 31.625 -29.816406 30.75 -28.015625 C 29.882812 -26.222656 28.660156 -24.535156 27.078125 -22.953125 C 25.492188 -21.367188 23.507812 -19.703125 21.125 -17.953125 L 15.953125 -14.171875 C 14.023438 -12.753906 12.539062 -11.546875 11.5 -10.546875 C 10.46875 -9.554688 9.710938 -8.59375 9.234375 -7.65625 C 8.765625 -6.71875 8.53125 -5.664062 8.53125 -4.5 L 32.0625 -4.5 L 32.0625 0 L 2.796875 0 Z M 2.796875 -2.125 "/></g></g></g><g fill="#000000" fill-opacity="1"><g transform="translate(388.641664, 314.238678)"><g><path d="M 29.015625 0 L 23.84375 0 L 23.84375 -11.0625 L 2.125 -11.0625 L 2.125 -15.4375 L 22.578125 -46.359375 L 29.015625 -46.359375 L 29.015625 -15.4375 L 37.03125 -15.4375 L 37.03125 -11.0625 L 29.015625 -11.0625 Z M 8.53125 -16.109375 L 8.8125 -15.4375 L 23.84375 -15.4375 L 23.84375 -38.8125 L 23.109375 -38.9375 Z M 8.53125 -16.109375 "/></g></g></g><g fill="#000000" fill-opacity="1"><g transform="translate(52.943107, 500.602657)"><g><path d="M 17.21875 0 L 5.515625 0 L 5.515625 -58.125 L 17.21875 -58.125 Z M 17.21875 0 "/></g></g></g><g fill="#000000" fill-opacity="1"><g transform="translate(75.504006, 500.602657)"><g><path d="M 30.046875 -43.03125 C 32.535156 -43.03125 34.695312 -42.609375 36.53125 -41.765625 C 38.375 -40.929688 39.835938 -39.945312 40.921875 -38.8125 C 42.210938 -37.40625 43.0625 -35.738281 43.46875 -33.8125 C 43.875 -31.894531 44.078125 -29.769531 44.078125 -27.4375 L 44.078125 0 L 32.96875 0 L 32.96875 -22.96875 C 32.96875 -26.875 32.53125 -29.769531 31.65625 -31.65625 C 30.789062 -33.550781 28.953125 -34.5 26.140625 -34.5 C 23.492188 -34.5 21.4375 -33.738281 19.96875 -32.21875 C 18.507812 -30.707031 17.644531 -28.953125 17.375 -26.953125 C 17.207031 -25.648438 17.082031 -24.484375 17 -23.453125 C 16.925781 -22.429688 16.890625 -21.269531 16.890625 -19.96875 L 16.890625 0 L 5.765625 0 L 5.765625 -42.0625 L 16.3125 -42.0625 L 16.3125 -35.890625 C 17.507812 -37.671875 19.285156 -39.304688 21.640625 -40.796875 C 23.992188 -42.285156 26.796875 -43.03125 30.046875 -43.03125 Z M 30.046875 -43.03125 "/></g></g></g><g fill="#000000" fill-opacity="1"><g transform="translate(125.089281, 500.602657)"><g/></g></g><g fill="#000000" fill-opacity="1"><g transform="translate(147.650179, 500.602657)"><g><path d="M 17.53125 -42.0625 L 25.09375 -42.0625 L 25.09375 -33.203125 L 17.53125 -33.203125 L 17.53125 -14.6875 C 17.53125 -12.90625 17.597656 -11.582031 17.734375 -10.71875 C 17.867188 -9.851562 18.148438 -9.226562 18.578125 -8.84375 C 19.015625 -8.46875 19.695312 -8.28125 20.625 -8.28125 C 21.757812 -8.28125 23.25 -8.632812 25.09375 -9.34375 L 26.0625 -0.734375 C 24.925781 -0.191406 23.546875 0.222656 21.921875 0.515625 C 20.296875 0.816406 18.753906 0.96875 17.296875 0.96875 C 15.179688 0.96875 13.3125 0.617188 11.6875 -0.078125 C 10.0625 -0.785156 8.875 -1.734375 8.125 -2.921875 C 7.3125 -4.273438 6.804688 -5.773438 6.609375 -7.421875 C 6.421875 -9.078125 6.328125 -11.148438 6.328125 -13.640625 L 6.328125 -33.203125 L 1.21875 -33.203125 L 1.21875 -42.0625 L 6.328125 -42.0625 L 6.328125 -50.421875 L 17.53125 -57 Z M 17.53125 -42.0625 "/></g></g></g><g fill="#000000" fill-opacity="1"><g transform="translate(174.674556, 500.602657)"><g><path d="M 16.890625 -36.703125 C 18.785156 -38.921875 20.773438 -40.53125 22.859375 -41.53125 C 24.941406 -42.53125 27.203125 -43.03125 29.640625 -43.03125 C 31.960938 -43.03125 34.03125 -42.675781 35.84375 -41.96875 C 37.65625 -41.269531 39.15625 -40.351562 40.34375 -39.21875 C 42.78125 -36.832031 44 -32.445312 44 -26.0625 L 44 0 L 32.875 0 L 32.875 -23.703125 C 32.875 -26.242188 32.710938 -28.269531 32.390625 -29.78125 C 32.066406 -31.300781 31.414062 -32.46875 30.4375 -33.28125 C 29.46875 -34.09375 27.984375 -34.5 25.984375 -34.5 C 22.460938 -34.5 20.066406 -33.363281 18.796875 -31.09375 C 17.523438 -28.820312 16.890625 -25.789062 16.890625 -22 L 16.890625 0 L 5.765625 0 L 5.765625 -58.125 L 16.890625 -58.125 Z M 16.890625 -36.703125 "/></g></g></g><g fill="#000000" fill-opacity="1"><g transform="translate(224.259831, 500.602657)"><g><path d="M 16.96875 -47.8125 L 5.84375 -47.8125 L 5.84375 -58.125 L 16.96875 -58.125 Z M 16.96875 0 L 5.84375 0 L 5.84375 -42.0625 L 16.96875 -42.0625 Z M 16.96875 0 "/></g></g></g><g fill="#000000" fill-opacity="1"><g transform="translate(246.820729, 500.602657)"><g><path d="M 21.1875 -43.03125 C 26.4375 -43.03125 30.5625 -42.160156 33.5625 -40.421875 C 36.570312 -38.691406 38.644531 -35.851562 39.78125 -31.90625 L 29.234375 -29.953125 C 28.742188 -31.691406 27.863281 -32.976562 26.59375 -33.8125 C 25.320312 -34.65625 23.546875 -35.078125 21.265625 -35.078125 C 16.234375 -35.078125 13.71875 -33.910156 13.71875 -31.578125 C 13.71875 -30.441406 14.539062 -29.535156 16.1875 -28.859375 C 17.84375 -28.179688 20.238281 -27.492188 23.375 -26.796875 C 27.21875 -25.929688 30.359375 -25.050781 32.796875 -24.15625 C 35.234375 -23.257812 37.234375 -21.929688 38.796875 -20.171875 C 40.367188 -18.410156 41.15625 -16.070312 41.15625 -13.15625 C 41.15625 -10.769531 40.492188 -8.507812 39.171875 -6.375 C 37.847656 -4.238281 35.75 -2.476562 32.875 -1.09375 C 30.007812 0.28125 26.382812 0.96875 22 0.96875 C 17.070312 0.96875 12.726562 -0.0820312 8.96875 -2.1875 C 5.207031 -4.300781 2.84375 -7.578125 1.875 -12.015625 L 12.984375 -13.71875 C 14.015625 -9.226562 17.019531 -6.984375 22 -6.984375 C 23.945312 -6.984375 25.773438 -7.320312 27.484375 -8 C 29.191406 -8.675781 30.046875 -9.878906 30.046875 -11.609375 C 30.046875 -12.742188 29.648438 -13.539062 28.859375 -14 C 28.078125 -14.457031 26.820312 -14.878906 25.09375 -15.265625 C 19.945312 -16.398438 15.9375 -17.453125 13.0625 -18.421875 C 10.195312 -19.398438 7.867188 -20.804688 6.078125 -22.640625 C 4.296875 -24.484375 3.40625 -26.976562 3.40625 -30.125 C 3.40625 -34.507812 5.082031 -37.753906 8.4375 -39.859375 C 11.800781 -41.972656 16.050781 -43.03125 21.1875 -43.03125 Z M 21.1875 -43.03125 "/></g></g></g><g fill="#000000" fill-opacity="1"><g transform="translate(291.942526, 500.602657)"><g/></g></g><g fill="#000000" fill-opacity="1"><g transform="translate(314.503424, 500.602657)"><g><path d="M 28.984375 -43.03125 C 32.066406 -43.03125 34.945312 -42.191406 37.625 -40.515625 C 40.3125 -38.835938 42.476562 -36.316406 44.125 -32.953125 C 45.78125 -29.597656 46.609375 -25.488281 46.609375 -20.625 C 46.609375 -15.914062 45.804688 -11.9375 44.203125 -8.6875 C 42.609375 -5.4375 40.472656 -3.015625 37.796875 -1.421875 C 35.117188 0.171875 32.15625 0.96875 28.90625 0.96875 C 24.144531 0.96875 20.054688 -0.976562 16.640625 -4.875 L 16.640625 16 L 5.515625 16 L 5.515625 -42.0625 L 15.90625 -42.0625 L 15.90625 -35.890625 L 16.078125 -35.890625 C 17.378906 -37.835938 19.175781 -39.515625 21.46875 -40.921875 C 23.769531 -42.328125 26.273438 -43.03125 28.984375 -43.03125 Z M 17.453125 -27.28125 C 16.859375 -25.550781 16.5625 -23.171875 16.5625 -20.140625 C 16.5625 -15.972656 17.441406 -12.832031 19.203125 -10.71875 C 20.960938 -8.601562 23.195312 -7.546875 25.90625 -7.546875 C 29.195312 -7.546875 31.5625 -8.84375 33 -11.4375 C 34.4375 -14.039062 35.15625 -17.265625 35.15625 -21.109375 C 35.15625 -25.597656 34.300781 -28.898438 32.59375 -31.015625 C 30.894531 -33.128906 28.769531 -34.1875 26.21875 -34.1875 C 24.320312 -34.1875 22.578125 -33.585938 20.984375 -32.390625 C 19.390625 -31.203125 18.210938 -29.5 17.453125 -27.28125 Z M 17.453125 -27.28125 "/></g></g></g><g fill="#000000" fill-opacity="1"><g transform="translate(364.088699, 500.602657)"><g><path d="M 22.25 -43.03125 C 27.601562 -43.03125 31.578125 -42.335938 34.171875 -40.953125 C 36.773438 -39.578125 38.414062 -37.765625 39.09375 -35.515625 C 39.769531 -33.273438 40.082031 -30.3125 40.03125 -26.625 L 39.9375 -14.375 C 39.882812 -10.53125 40.019531 -7.738281 40.34375 -6 C 40.675781 -4.269531 41.351562 -2.269531 42.375 0 L 31.421875 0 C 31.148438 -0.59375 30.660156 -2.132812 29.953125 -4.625 C 27.953125 -2.675781 25.882812 -1.253906 23.75 -0.359375 C 21.613281 0.523438 19.328125 0.96875 16.890625 0.96875 C 12.722656 0.96875 9.351562 -0.175781 6.78125 -2.46875 C 4.207031 -4.769531 2.921875 -7.765625 2.921875 -11.453125 C 2.921875 -14.535156 3.691406 -16.984375 5.234375 -18.796875 C 6.773438 -20.609375 8.65625 -21.921875 10.875 -22.734375 C 13.09375 -23.546875 15.71875 -24.25 18.75 -24.84375 C 23.40625 -25.707031 26.84375 -26.570312 29.0625 -27.4375 L 29.0625 -29.234375 C 29.0625 -31.066406 28.519531 -32.398438 27.4375 -33.234375 C 26.351562 -34.078125 24.378906 -34.5 21.515625 -34.5 C 19.296875 -34.5 17.644531 -34.050781 16.5625 -33.15625 C 15.476562 -32.269531 14.664062 -30.960938 14.125 -29.234375 L 4.0625 -31.09375 C 5.144531 -35.207031 7.09375 -38.222656 9.90625 -40.140625 C 12.71875 -42.066406 16.832031 -43.03125 22.25 -43.03125 Z M 22.078125 -18.421875 L 20.21875 -18.03125 C 16.101562 -17.15625 14.046875 -15.367188 14.046875 -12.671875 C 14.046875 -11.046875 14.625 -9.675781 15.78125 -8.5625 C 16.945312 -7.457031 18.425781 -6.90625 20.21875 -6.90625 C 21.675781 -6.90625 23.132812 -7.28125 24.59375 -8.03125 C 26.0625 -8.789062 27.203125 -9.796875 28.015625 -11.046875 C 28.710938 -12.179688 29.0625 -14.128906 29.0625 -16.890625 L 29.0625 -20.21875 C 26.957031 -19.5625 24.628906 -18.960938 22.078125 -18.421875 Z M 22.078125 -18.421875 "/></g></g></g><g fill="#000000" fill-opacity="1"><g transform="translate(409.210496, 500.602657)"><g><path d="M 21.109375 -43.03125 C 23.972656 -43.03125 26.472656 -42.40625 28.609375 -41.15625 C 30.753906 -39.914062 32.503906 -38.265625 33.859375 -36.203125 L 34.015625 -36.203125 L 34.015625 -42.0625 L 44.40625 -42.0625 L 44.40625 -3.578125 C 44.40625 1.128906 43.863281 4.957031 42.78125 7.90625 C 41.695312 10.863281 39.707031 13.125 36.8125 14.6875 C 33.914062 16.257812 29.789062 17.046875 24.4375 17.046875 C 17.613281 17.046875 12.644531 15.84375 9.53125 13.4375 C 6.425781 11.03125 4.847656 7.472656 4.796875 2.765625 L 17.53125 4.296875 C 17.75 5.972656 18.382812 7.097656 19.4375 7.671875 C 20.5 8.242188 22.03125 8.53125 24.03125 8.53125 C 27.5 8.53125 29.90625 7.921875 31.25 6.703125 C 32.601562 5.484375 33.28125 3.359375 33.28125 0.328125 L 33.28125 -6.8125 L 33.125 -6.8125 C 31.71875 -4.757812 29.914062 -3.109375 27.71875 -1.859375 C 25.53125 -0.617188 23.191406 0 20.703125 0 C 17.234375 0 14.1875 -0.914062 11.5625 -2.75 C 8.9375 -4.59375 6.90625 -7.140625 5.46875 -10.390625 C 4.039062 -13.640625 3.328125 -17.265625 3.328125 -21.265625 C 3.328125 -26.515625 4.234375 -30.765625 6.046875 -34.015625 C 7.859375 -37.265625 10.117188 -39.578125 12.828125 -40.953125 C 15.535156 -42.335938 18.296875 -43.03125 21.109375 -43.03125 Z M 14.78125 -21.921875 C 14.78125 -18.398438 15.484375 -15.378906 16.890625 -12.859375 C 18.296875 -10.347656 20.59375 -9.09375 23.78125 -9.09375 C 26.21875 -9.09375 28.453125 -10.039062 30.484375 -11.9375 C 32.515625 -13.832031 33.53125 -17.078125 33.53125 -21.671875 C 33.53125 -25.085938 32.785156 -28.078125 31.296875 -30.640625 C 29.804688 -33.210938 27.332031 -34.5 23.875 -34.5 C 20.507812 -34.5 18.148438 -33.195312 16.796875 -30.59375 C 15.453125 -28 14.78125 -25.109375 14.78125 -21.921875 Z M 14.78125 -21.921875 "/></g></g></g><g fill="#000000" fill-opacity="1"><g transform="translate(458.795771, 500.602657)"><g><path d="M 21.921875 -43.03125 C 28.628906 -43.03125 33.632812 -40.847656 36.9375 -36.484375 C 40.238281 -32.128906 41.890625 -25.921875 41.890625 -17.859375 L 13.96875 -17.859375 C 14.070312 -15.046875 14.894531 -12.625 16.4375 -10.59375 C 17.976562 -8.5625 20.210938 -7.546875 23.140625 -7.546875 C 24.984375 -7.546875 26.484375 -8.019531 27.640625 -8.96875 C 28.804688 -9.914062 29.660156 -11.390625 30.203125 -13.390625 L 41.328125 -11.53125 C 39.921875 -7.414062 37.644531 -4.300781 34.5 -2.1875 C 31.363281 -0.0820312 27.519531 0.96875 22.96875 0.96875 C 16.207031 0.96875 11.09375 -1.054688 7.625 -5.109375 C 6.007812 -7.003906 4.765625 -9.382812 3.890625 -12.25 C 3.023438 -15.125 2.59375 -17.96875 2.59375 -20.78125 C 2.59375 -24.625 3.28125 -28.238281 4.65625 -31.625 C 6.039062 -35.007812 8.179688 -37.753906 11.078125 -39.859375 C 13.972656 -41.972656 17.585938 -43.03125 21.921875 -43.03125 Z M 14.203125 -24.6875 L 30.84375 -24.6875 C 30.789062 -28.09375 29.9375 -30.578125 28.28125 -32.140625 C 26.632812 -33.710938 24.703125 -34.5 22.484375 -34.5 C 19.890625 -34.5 17.859375 -33.566406 16.390625 -31.703125 C 14.929688 -29.835938 14.203125 -27.5 14.203125 -24.6875 Z M 14.203125 -24.6875 "/></g></g></g><g fill="#000000" fill-opacity="1"><g transform="translate(503.917568, 500.602657)"><g><path d="M 16.71875 -2.1875 C 16.71875 1.863281 15.957031 5.066406 14.4375 7.421875 C 12.925781 9.773438 10.382812 11.628906 6.8125 12.984375 L 4.625 8.359375 C 6.738281 7.710938 8.296875 6.722656 9.296875 5.390625 C 10.296875 4.066406 10.847656 2.269531 10.953125 0 L 5.609375 0 L 5.609375 -11.125 L 16.71875 -11.125 Z M 16.71875 -2.1875 "/></g></g></g><g fill="#000000" fill-opacity="1"><g transform="translate(526.478466, 500.602657)"><g/></g></g><g fill="#000000" fill-opacity="1"><g transform="translate(549.039364, 500.602657)"><g><path d="M 17.21875 0 L 5.515625 0 L 5.515625 -58.125 L 17.21875 -58.125 Z M 17.21875 0 "/></g></g></g><g fill="#000000" fill-opacity="1"><g transform="translate(571.600263, 500.602657)"><g/></g></g><g fill="#000000" fill-opacity="1"><g transform="translate(594.161161, 500.602657)"><g><path d="M 19 -14.53125 L 19.15625 -14.53125 L 26.3125 -42.0625 L 37.109375 -42.0625 L 44 -14.53125 L 44.171875 -14.53125 L 52.125 -42.0625 L 63.078125 -42.0625 L 49.609375 0 L 38.890625 0 L 31.75 -27.109375 L 31.578125 -27.109375 L 24.515625 0 L 13.71875 0 L 0.328125 -42.0625 L 11.203125 -42.0625 Z M 19 -14.53125 "/></g></g></g><g fill="#000000" fill-opacity="1"><g transform="translate(657.299209, 500.602657)"><g><path d="M 16.96875 -47.8125 L 5.84375 -47.8125 L 5.84375 -58.125 L 16.96875 -58.125 Z M 16.96875 0 L 5.84375 0 L 5.84375 -42.0625 L 16.96875 -42.0625 Z M 16.96875 0 "/></g></g></g><g fill="#000000" fill-opacity="1"><g transform="translate(679.860107, 500.602657)"><g><path d="M 16.96875 0 L 5.84375 0 L 5.84375 -58.125 L 16.96875 -58.125 Z M 16.96875 0 "/></g></g></g><g fill="#000000" fill-opacity="1"><g transform="translate(702.421006, 500.602657)"><g><path d="M 16.96875 0 L 5.84375 0 L 5.84375 -58.125 L 16.96875 -58.125 Z M 16.96875 0 "/></g></g></g><g fill="#000000" fill-opacity="1"><g transform="translate(724.981904, 500.602657)"><g/></g></g><g fill="#000000" fill-opacity="1"><g transform="translate(747.542802, 500.602657)"><g><path d="M 16.96875 0 L 5.84375 0 L 5.84375 -58.125 L 16.96875 -58.125 Z M 16.96875 0 "/></g></g></g><g fill="#000000" fill-opacity="1"><g transform="translate(770.1037, 500.602657)"><g><path d="M 24.921875 -43.03125 C 29.472656 -43.03125 33.398438 -42 36.703125 -39.9375 C 40.003906 -37.882812 42.492188 -35.179688 44.171875 -31.828125 C 45.847656 -28.472656 46.6875 -24.925781 46.6875 -21.1875 C 46.6875 -17.289062 45.804688 -13.648438 44.046875 -10.265625 C 42.285156 -6.890625 39.765625 -4.171875 36.484375 -2.109375 C 33.210938 -0.0546875 29.382812 0.96875 25 0.96875 C 21.269531 0.96875 17.753906 0.195312 14.453125 -1.34375 C 11.148438 -2.882812 8.457031 -5.34375 6.375 -8.71875 C 4.289062 -12.101562 3.25 -16.394531 3.25 -21.59375 C 3.25 -25.21875 4.070312 -28.664062 5.71875 -31.9375 C 7.375 -35.21875 9.835938 -37.882812 13.109375 -39.9375 C 16.390625 -42 20.328125 -43.03125 24.921875 -43.03125 Z M 14.6875 -21.03125 C 14.6875 -16.800781 15.675781 -13.59375 17.65625 -11.40625 C 19.632812 -9.21875 22.054688 -8.125 24.921875 -8.125 C 27.796875 -8.125 30.234375 -9.203125 32.234375 -11.359375 C 34.234375 -13.523438 35.234375 -16.773438 35.234375 -21.109375 C 35.234375 -25.109375 34.269531 -28.242188 32.34375 -30.515625 C 30.425781 -32.796875 27.925781 -33.9375 24.84375 -33.9375 C 22.03125 -33.9375 19.632812 -32.828125 17.65625 -30.609375 C 15.675781 -28.390625 14.6875 -25.195312 14.6875 -21.03125 Z M 14.6875 -21.03125 "/></g></g></g><g fill="#000000" fill-opacity="1"><g transform="translate(819.688976, 500.602657)"><g><path d="M 24.921875 -43.03125 C 29.472656 -43.03125 33.398438 -42 36.703125 -39.9375 C 40.003906 -37.882812 42.492188 -35.179688 44.171875 -31.828125 C 45.847656 -28.472656 46.6875 -24.925781 46.6875 -21.1875 C 46.6875 -17.289062 45.804688 -13.648438 44.046875 -10.265625 C 42.285156 -6.890625 39.765625 -4.171875 36.484375 -2.109375 C 33.210938 -0.0546875 29.382812 0.96875 25 0.96875 C 21.269531 0.96875 17.753906 0.195312 14.453125 -1.34375 C 11.148438 -2.882812 8.457031 -5.34375 6.375 -8.71875 C 4.289062 -12.101562 3.25 -16.394531 3.25 -21.59375 C 3.25 -25.21875 4.070312 -28.664062 5.71875 -31.9375 C 7.375 -35.21875 9.835938 -37.882812 13.109375 -39.9375 C 16.390625 -42 20.328125 -43.03125 24.921875 -43.03125 Z M 14.6875 -21.03125 C 14.6875 -16.800781 15.675781 -13.59375 17.65625 -11.40625 C 19.632812 -9.21875 22.054688 -8.125 24.921875 -8.125 C 27.796875 -8.125 30.234375 -9.203125 32.234375 -11.359375 C 34.234375 -13.523438 35.234375 -16.773438 35.234375 -21.109375 C 35.234375 -25.109375 34.269531 -28.242188 32.34375 -30.515625 C 30.425781 -32.796875 27.925781 -33.9375 24.84375 -33.9375 C 22.03125 -33.9375 19.632812 -32.828125 17.65625 -30.609375 C 15.675781 -28.390625 14.6875 -25.195312 14.6875 -21.03125 Z M 14.6875 -21.03125 "/></g></g></g><g fill="#000000" fill-opacity="1"><g transform="translate(869.274251, 500.602657)"><g><path d="M 16.5625 -27.28125 L 29.640625 -42.0625 L 43.359375 -42.0625 L 28.984375 -26.703125 L 44.328125 0 L 32.3125 0 L 21.765625 -18.921875 L 16.5625 -13.484375 L 16.5625 0 L 5.4375 0 L 5.4375 -58.125 L 16.5625 -58.125 Z M 16.5625 -27.28125 "/></g></g></g><g fill="#000000" fill-opacity="1"><g transform="translate(914.396047, 500.602657)"><g/></g></g><g fill="#000000" fill-opacity="1"><g transform="translate(936.956946, 500.602657)"><g><path d="M 22.25 -43.03125 C 27.601562 -43.03125 31.578125 -42.335938 34.171875 -40.953125 C 36.773438 -39.578125 38.414062 -37.765625 39.09375 -35.515625 C 39.769531 -33.273438 40.082031 -30.3125 40.03125 -26.625 L 39.9375 -14.375 C 39.882812 -10.53125 40.019531 -7.738281 40.34375 -6 C 40.675781 -4.269531 41.351562 -2.269531 42.375 0 L 31.421875 0 C 31.148438 -0.59375 30.660156 -2.132812 29.953125 -4.625 C 27.953125 -2.675781 25.882812 -1.253906 23.75 -0.359375 C 21.613281 0.523438 19.328125 0.96875 16.890625 0.96875 C 12.722656 0.96875 9.351562 -0.175781 6.78125 -2.46875 C 4.207031 -4.769531 2.921875 -7.765625 2.921875 -11.453125 C 2.921875 -14.535156 3.691406 -16.984375 5.234375 -18.796875 C 6.773438 -20.609375 8.65625 -21.921875 10.875 -22.734375 C 13.09375 -23.546875 15.71875 -24.25 18.75 -24.84375 C 23.40625 -25.707031 26.84375 -26.570312 29.0625 -27.4375 L 29.0625 -29.234375 C 29.0625 -31.066406 28.519531 -32.398438 27.4375 -33.234375 C 26.351562 -34.078125 24.378906 -34.5 21.515625 -34.5 C 19.296875 -34.5 17.644531 -34.050781 16.5625 -33.15625 C 15.476562 -32.269531 14.664062 -30.960938 14.125 -29.234375 L 4.0625 -31.09375 C 5.144531 -35.207031 7.09375 -38.222656 9.90625 -40.140625 C 12.71875 -42.066406 16.832031 -43.03125 22.25 -43.03125 Z M 22.078125 -18.421875 L 20.21875 -18.03125 C 16.101562 -17.15625 14.046875 -15.367188 14.046875 -12.671875 C 14.046875 -11.046875 14.625 -9.675781 15.78125 -8.5625 C 16.945312 -7.457031 18.425781 -6.90625 20.21875 -6.90625 C 21.675781 -6.90625 23.132812 -7.28125 24.59375 -8.03125 C 26.0625 -8.789062 27.203125 -9.796875 28.015625 -11.046875 C 28.710938 -12.179688 29.0625 -14.128906 29.0625 -16.890625 L 29.0625 -20.21875 C 26.957031 -19.5625 24.628906 -18.960938 22.078125 -18.421875 Z M 22.078125 -18.421875 "/></g></g></g><g fill="#000000" fill-opacity="1"><g transform="translate(982.078742, 500.602657)"><g><path d="M 17.53125 -42.0625 L 25.09375 -42.0625 L 25.09375 -33.203125 L 17.53125 -33.203125 L 17.53125 -14.6875 C 17.53125 -12.90625 17.597656 -11.582031 17.734375 -10.71875 C 17.867188 -9.851562 18.148438 -9.226562 18.578125 -8.84375 C 19.015625 -8.46875 19.695312 -8.28125 20.625 -8.28125 C 21.757812 -8.28125 23.25 -8.632812 25.09375 -9.34375 L 26.0625 -0.734375 C 24.925781 -0.191406 23.546875 0.222656 21.921875 0.515625 C 20.296875 0.816406 18.753906 0.96875 17.296875 0.96875 C 15.179688 0.96875 13.3125 0.617188 11.6875 -0.078125 C 10.0625 -0.785156 8.875 -1.734375 8.125 -2.921875 C 7.3125 -4.273438 6.804688 -5.773438 6.609375 -7.421875 C 6.421875 -9.078125 6.328125 -11.148438 6.328125 -13.640625 L 6.328125 -33.203125 L 1.21875 -33.203125 L 1.21875 -42.0625 L 6.328125 -42.0625 L 6.328125 -50.421875 L 17.53125 -57 Z M 17.53125 -42.0625 "/></g></g></g><g fill="#000000" fill-opacity="1"><g transform="translate(52.943107, 573.527692)"><g><path d="M 21.1875 -43.03125 C 26.4375 -43.03125 30.5625 -42.160156 33.5625 -40.421875 C 36.570312 -38.691406 38.644531 -35.851562 39.78125 -31.90625 L 29.234375 -29.953125 C 28.742188 -31.691406 27.863281 -32.976562 26.59375 -33.8125 C 25.320312 -34.65625 23.546875 -35.078125 21.265625 -35.078125 C 16.234375 -35.078125 13.71875 -33.910156 13.71875 -31.578125 C 13.71875 -30.441406 14.539062 -29.535156 16.1875 -28.859375 C 17.84375 -28.179688 20.238281 -27.492188 23.375 -26.796875 C 27.21875 -25.929688 30.359375 -25.050781 32.796875 -24.15625 C 35.234375 -23.257812 37.234375 -21.929688 38.796875 -20.171875 C 40.367188 -18.410156 41.15625 -16.070312 41.15625 -13.15625 C 41.15625 -10.769531 40.492188 -8.507812 39.171875 -6.375 C 37.847656 -4.238281 35.75 -2.476562 32.875 -1.09375 C 30.007812 0.28125 26.382812 0.96875 22 0.96875 C 17.070312 0.96875 12.726562 -0.0820312 8.96875 -2.1875 C 5.207031 -4.300781 2.84375 -7.578125 1.875 -12.015625 L 12.984375 -13.71875 C 14.015625 -9.226562 17.019531 -6.984375 22 -6.984375 C 23.945312 -6.984375 25.773438 -7.320312 27.484375 -8 C 29.191406 -8.675781 30.046875 -9.878906 30.046875 -11.609375 C 30.046875 -12.742188 29.648438 -13.539062 28.859375 -14 C 28.078125 -14.457031 26.820312 -14.878906 25.09375 -15.265625 C 19.945312 -16.398438 15.9375 -17.453125 13.0625 -18.421875 C 10.195312 -19.398438 7.867188 -20.804688 6.078125 -22.640625 C 4.296875 -24.484375 3.40625 -26.976562 3.40625 -30.125 C 3.40625 -34.507812 5.082031 -37.753906 8.4375 -39.859375 C 11.800781 -41.972656 16.050781 -43.03125 21.1875 -43.03125 Z M 21.1875 -43.03125 "/></g></g></g><g fill="#000000" fill-opacity="1"><g transform="translate(98.064904, 573.527692)"><g><path d="M 24.921875 -43.03125 C 29.472656 -43.03125 33.398438 -42 36.703125 -39.9375 C 40.003906 -37.882812 42.492188 -35.179688 44.171875 -31.828125 C 45.847656 -28.472656 46.6875 -24.925781 46.6875 -21.1875 C 46.6875 -17.289062 45.804688 -13.648438 44.046875 -10.265625 C 42.285156 -6.890625 39.765625 -4.171875 36.484375 -2.109375 C 33.210938 -0.0546875 29.382812 0.96875 25 0.96875 C 21.269531 0.96875 17.753906 0.195312 14.453125 -1.34375 C 11.148438 -2.882812 8.457031 -5.34375 6.375 -8.71875 C 4.289062 -12.101562 3.25 -16.394531 3.25 -21.59375 C 3.25 -25.21875 4.070312 -28.664062 5.71875 -31.9375 C 7.375 -35.21875 9.835938 -37.882812 13.109375 -39.9375 C 16.390625 -42 20.328125 -43.03125 24.921875 -43.03125 Z M 14.6875 -21.03125 C 14.6875 -16.800781 15.675781 -13.59375 17.65625 -11.40625 C 19.632812 -9.21875 22.054688 -8.125 24.921875 -8.125 C 27.796875 -8.125 30.234375 -9.203125 32.234375 -11.359375 C 34.234375 -13.523438 35.234375 -16.773438 35.234375 -21.109375 C 35.234375 -25.109375 34.269531 -28.242188 32.34375 -30.515625 C 30.425781 -32.796875 27.925781 -33.9375 24.84375 -33.9375 C 22.03125 -33.9375 19.632812 -32.828125 17.65625 -30.609375 C 15.675781 -28.390625 14.6875 -25.195312 14.6875 -21.03125 Z M 14.6875 -21.03125 "/></g></g></g><g fill="#000000" fill-opacity="1"><g transform="translate(147.650179, 573.527692)"><g><path d="M 28.421875 -43.03125 C 33.878906 -43.03125 37.851562 -40.8125 40.34375 -36.375 C 43.976562 -40.8125 48.253906 -43.03125 53.171875 -43.03125 C 57.828125 -43.03125 61.289062 -41.753906 63.5625 -39.203125 C 65.84375 -36.660156 66.984375 -32.847656 66.984375 -27.765625 L 66.984375 0 L 55.859375 0 L 55.859375 -25.171875 C 55.859375 -28.203125 55.460938 -30.515625 54.671875 -32.109375 C 53.890625 -33.703125 52.3125 -34.5 49.9375 -34.5 C 47.65625 -34.5 45.820312 -33.710938 44.4375 -32.140625 C 43.0625 -30.578125 42.210938 -28.550781 41.890625 -26.0625 C 41.671875 -24.113281 41.5625 -22.378906 41.5625 -20.859375 L 41.5625 0 L 30.4375 0 L 30.4375 -24.765625 C 30.4375 -28.171875 30.070312 -30.644531 29.34375 -32.1875 C 28.613281 -33.726562 27.0625 -34.5 24.6875 -34.5 C 22.945312 -34.5 21.382812 -34.039062 20 -33.125 C 18.625 -32.207031 17.664062 -30.9375 17.125 -29.3125 C 16.476562 -27.363281 16.15625 -24.628906 16.15625 -21.109375 L 16.15625 0 L 5.03125 0 L 5.03125 -42.0625 L 15.34375 -42.0625 L 15.5 -36.375 C 17.238281 -38.476562 19.066406 -40.113281 20.984375 -41.28125 C 22.910156 -42.445312 25.390625 -43.03125 28.421875 -43.03125 Z M 28.421875 -43.03125 "/></g></g></g><g fill="#000000" fill-opacity="1"><g transform="translate(219.796355, 573.527692)"><g><path d="M 21.921875 -43.03125 C 28.628906 -43.03125 33.632812 -40.847656 36.9375 -36.484375 C 40.238281 -32.128906 41.890625 -25.921875 41.890625 -17.859375 L 13.96875 -17.859375 C 14.070312 -15.046875 14.894531 -12.625 16.4375 -10.59375 C 17.976562 -8.5625 20.210938 -7.546875 23.140625 -7.546875 C 24.984375 -7.546875 26.484375 -8.019531 27.640625 -8.96875 C 28.804688 -9.914062 29.660156 -11.390625 30.203125 -13.390625 L 41.328125 -11.53125 C 39.921875 -7.414062 37.644531 -4.300781 34.5 -2.1875 C 31.363281 -0.0820312 27.519531 0.96875 22.96875 0.96875 C 16.207031 0.96875 11.09375 -1.054688 7.625 -5.109375 C 6.007812 -7.003906 4.765625 -9.382812 3.890625 -12.25 C 3.023438 -15.125 2.59375 -17.96875 2.59375 -20.78125 C 2.59375 -24.625 3.28125 -28.238281 4.65625 -31.625 C 6.039062 -35.007812 8.179688 -37.753906 11.078125 -39.859375 C 13.972656 -41.972656 17.585938 -43.03125 21.921875 -43.03125 Z M 14.203125 -24.6875 L 30.84375 -24.6875 C 30.789062 -28.09375 29.9375 -30.578125 28.28125 -32.140625 C 26.632812 -33.710938 24.703125 -34.5 22.484375 -34.5 C 19.890625 -34.5 17.859375 -33.566406 16.390625 -31.703125 C 14.929688 -29.835938 14.203125 -27.5 14.203125 -24.6875 Z M 14.203125 -24.6875 "/></g></g></g><g fill="#000000" fill-opacity="1"><g transform="translate(264.918151, 573.527692)"><g/></g></g><g fill="#000000" fill-opacity="1"><g transform="translate(287.479049, 573.527692)"><g><path d="M 17.53125 -42.0625 L 25.09375 -42.0625 L 25.09375 -33.203125 L 17.53125 -33.203125 L 17.53125 -14.6875 C 17.53125 -12.90625 17.597656 -11.582031 17.734375 -10.71875 C 17.867188 -9.851562 18.148438 -9.226562 18.578125 -8.84375 C 19.015625 -8.46875 19.695312 -8.28125 20.625 -8.28125 C 21.757812 -8.28125 23.25 -8.632812 25.09375 -9.34375 L 26.0625 -0.734375 C 24.925781 -0.191406 23.546875 0.222656 21.921875 0.515625 C 20.296875 0.816406 18.753906 0.96875 17.296875 0.96875 C 15.179688 0.96875 13.3125 0.617188 11.6875 -0.078125 C 10.0625 -0.785156 8.875 -1.734375 8.125 -2.921875 C 7.3125 -4.273438 6.804688 -5.773438 6.609375 -7.421875 C 6.421875 -9.078125 6.328125 -11.148438 6.328125 -13.640625 L 6.328125 -33.203125 L 1.21875 -33.203125 L 1.21875 -42.0625 L 6.328125 -42.0625 L 6.328125 -50.421875 L 17.53125 -57 Z M 17.53125 -42.0625 "/></g></g></g><g fill="#000000" fill-opacity="1"><g transform="translate(314.503426, 573.527692)"><g><path d="M 21.921875 -43.03125 C 28.628906 -43.03125 33.632812 -40.847656 36.9375 -36.484375 C 40.238281 -32.128906 41.890625 -25.921875 41.890625 -17.859375 L 13.96875 -17.859375 C 14.070312 -15.046875 14.894531 -12.625 16.4375 -10.59375 C 17.976562 -8.5625 20.210938 -7.546875 23.140625 -7.546875 C 24.984375 -7.546875 26.484375 -8.019531 27.640625 -8.96875 C 28.804688 -9.914062 29.660156 -11.390625 30.203125 -13.390625 L 41.328125 -11.53125 C 39.921875 -7.414062 37.644531 -4.300781 34.5 -2.1875 C 31.363281 -0.0820312 27.519531 0.96875 22.96875 0.96875 C 16.207031 0.96875 11.09375 -1.054688 7.625 -5.109375 C 6.007812 -7.003906 4.765625 -9.382812 3.890625 -12.25 C 3.023438 -15.125 2.59375 -17.96875 2.59375 -20.78125 C 2.59375 -24.625 3.28125 -28.238281 4.65625 -31.625 C 6.039062 -35.007812 8.179688 -37.753906 11.078125 -39.859375 C 13.972656 -41.972656 17.585938 -43.03125 21.921875 -43.03125 Z M 14.203125 -24.6875 L 30.84375 -24.6875 C 30.789062 -28.09375 29.9375 -30.578125 28.28125 -32.140625 C 26.632812 -33.710938 24.703125 -34.5 22.484375 -34.5 C 19.890625 -34.5 17.859375 -33.566406 16.390625 -31.703125 C 14.929688 -29.835938 14.203125 -27.5 14.203125 -24.6875 Z M 14.203125 -24.6875 "/></g></g></g><g fill="#000000" fill-opacity="1"><g transform="translate(359.625223, 573.527692)"><g><path d="M 8.4375 -36.703125 C 12.070312 -40.921875 17.21875 -43.03125 23.875 -43.03125 C 33.882812 -43.03125 40.132812 -38.566406 42.625 -29.640625 L 31.65625 -27.6875 C 30.738281 -32.125 28.195312 -34.34375 24.03125 -34.34375 C 21.21875 -34.34375 18.984375 -33.367188 17.328125 -31.421875 C 15.679688 -29.472656 14.859375 -26.304688 14.859375 -21.921875 C 14.859375 -17.640625 15.5625 -14.269531 16.96875 -11.8125 C 18.375 -9.351562 20.78125 -8.125 24.1875 -8.125 C 26.40625 -8.125 28.175781 -8.785156 29.5 -10.109375 C 30.832031 -11.429688 31.742188 -13.445312 32.234375 -16.15625 L 43.1875 -14.28125 C 40.914062 -4.113281 34.394531 0.96875 23.625 0.96875 C 17.238281 0.96875 12.3125 -0.976562 8.84375 -4.875 C 7.0625 -6.875 5.707031 -9.304688 4.78125 -12.171875 C 3.863281 -15.046875 3.40625 -18 3.40625 -21.03125 C 3.40625 -24.164062 3.835938 -27.085938 4.703125 -29.796875 C 5.578125 -32.503906 6.820312 -34.804688 8.4375 -36.703125 Z M 8.4375 -36.703125 "/></g></g></g><g fill="#000000" fill-opacity="1"><g transform="translate(404.747019, 573.527692)"><g><path d="M 16.890625 -36.703125 C 18.785156 -38.921875 20.773438 -40.53125 22.859375 -41.53125 C 24.941406 -42.53125 27.203125 -43.03125 29.640625 -43.03125 C 31.960938 -43.03125 34.03125 -42.675781 35.84375 -41.96875 C 37.65625 -41.269531 39.15625 -40.351562 40.34375 -39.21875 C 42.78125 -36.832031 44 -32.445312 44 -26.0625 L 44 0 L 32.875 0 L 32.875 -23.703125 C 32.875 -26.242188 32.710938 -28.269531 32.390625 -29.78125 C 32.066406 -31.300781 31.414062 -32.46875 30.4375 -33.28125 C 29.46875 -34.09375 27.984375 -34.5 25.984375 -34.5 C 22.460938 -34.5 20.066406 -33.363281 18.796875 -31.09375 C 17.523438 -28.820312 16.890625 -25.789062 16.890625 -22 L 16.890625 0 L 5.765625 0 L 5.765625 -58.125 L 16.890625 -58.125 Z M 16.890625 -36.703125 "/></g></g></g><g fill="#000000" fill-opacity="1"><g transform="translate(454.332295, 573.527692)"><g><path d="M 30.046875 -43.03125 C 32.535156 -43.03125 34.695312 -42.609375 36.53125 -41.765625 C 38.375 -40.929688 39.835938 -39.945312 40.921875 -38.8125 C 42.210938 -37.40625 43.0625 -35.738281 43.46875 -33.8125 C 43.875 -31.894531 44.078125 -29.769531 44.078125 -27.4375 L 44.078125 0 L 32.96875 0 L 32.96875 -22.96875 C 32.96875 -26.875 32.53125 -29.769531 31.65625 -31.65625 C 30.789062 -33.550781 28.953125 -34.5 26.140625 -34.5 C 23.492188 -34.5 21.4375 -33.738281 19.96875 -32.21875 C 18.507812 -30.707031 17.644531 -28.953125 17.375 -26.953125 C 17.207031 -25.648438 17.082031 -24.484375 17 -23.453125 C 16.925781 -22.429688 16.890625 -21.269531 16.890625 -19.96875 L 16.890625 0 L 5.765625 0 L 5.765625 -42.0625 L 16.3125 -42.0625 L 16.3125 -35.890625 C 17.507812 -37.671875 19.285156 -39.304688 21.640625 -40.796875 C 23.992188 -42.285156 26.796875 -43.03125 30.046875 -43.03125 Z M 30.046875 -43.03125 "/></g></g></g><g fill="#000000" fill-opacity="1"><g transform="translate(503.91757, 573.527692)"><g><path d="M 16.96875 -47.8125 L 5.84375 -47.8125 L 5.84375 -58.125 L 16.96875 -58.125 Z M 16.96875 0 L 5.84375 0 L 5.84375 -42.0625 L 16.96875 -42.0625 Z M 16.96875 0 "/></g></g></g><g fill="#000000" fill-opacity="1"><g transform="translate(526.478468, 573.527692)"><g><path d="M 8.4375 -36.703125 C 12.070312 -40.921875 17.21875 -43.03125 23.875 -43.03125 C 33.882812 -43.03125 40.132812 -38.566406 42.625 -29.640625 L 31.65625 -27.6875 C 30.738281 -32.125 28.195312 -34.34375 24.03125 -34.34375 C 21.21875 -34.34375 18.984375 -33.367188 17.328125 -31.421875 C 15.679688 -29.472656 14.859375 -26.304688 14.859375 -21.921875 C 14.859375 -17.640625 15.5625 -14.269531 16.96875 -11.8125 C 18.375 -9.351562 20.78125 -8.125 24.1875 -8.125 C 26.40625 -8.125 28.175781 -8.785156 29.5 -10.109375 C 30.832031 -11.429688 31.742188 -13.445312 32.234375 -16.15625 L 43.1875 -14.28125 C 40.914062 -4.113281 34.394531 0.96875 23.625 0.96875 C 17.238281 0.96875 12.3125 -0.976562 8.84375 -4.875 C 7.0625 -6.875 5.707031 -9.304688 4.78125 -12.171875 C 3.863281 -15.046875 3.40625 -18 3.40625 -21.03125 C 3.40625 -24.164062 3.835938 -27.085938 4.703125 -29.796875 C 5.578125 -32.503906 6.820312 -34.804688 8.4375 -36.703125 Z M 8.4375 -36.703125 "/></g></g></g><g fill="#000000" fill-opacity="1"><g transform="translate(571.600265, 573.527692)"><g><path d="M 21.1875 -43.03125 C 26.4375 -43.03125 30.5625 -42.160156 33.5625 -40.421875 C 36.570312 -38.691406 38.644531 -35.851562 39.78125 -31.90625 L 29.234375 -29.953125 C 28.742188 -31.691406 27.863281 -32.976562 26.59375 -33.8125 C 25.320312 -34.65625 23.546875 -35.078125 21.265625 -35.078125 C 16.234375 -35.078125 13.71875 -33.910156 13.71875 -31.578125 C 13.71875 -30.441406 14.539062 -29.535156 16.1875 -28.859375 C 17.84375 -28.179688 20.238281 -27.492188 23.375 -26.796875 C 27.21875 -25.929688 30.359375 -25.050781 32.796875 -24.15625 C 35.234375 -23.257812 37.234375 -21.929688 38.796875 -20.171875 C 40.367188 -18.410156 41.15625 -16.070312 41.15625 -13.15625 C 41.15625 -10.769531 40.492188 -8.507812 39.171875 -6.375 C 37.847656 -4.238281 35.75 -2.476562 32.875 -1.09375 C 30.007812 0.28125 26.382812 0.96875 22 0.96875 C 17.070312 0.96875 12.726562 -0.0820312 8.96875 -2.1875 C 5.207031 -4.300781 2.84375 -7.578125 1.875 -12.015625 L 12.984375 -13.71875 C 14.015625 -9.226562 17.019531 -6.984375 22 -6.984375 C 23.945312 -6.984375 25.773438 -7.320312 27.484375 -8 C 29.191406 -8.675781 30.046875 -9.878906 30.046875 -11.609375 C 30.046875 -12.742188 29.648438 -13.539062 28.859375 -14 C 28.078125 -14.457031 26.820312 -14.878906 25.09375 -15.265625 C 19.945312 -16.398438 15.9375 -17.453125 13.0625 -18.421875 C 10.195312 -19.398438 7.867188 -20.804688 6.078125 -22.640625 C 4.296875 -24.484375 3.40625 -26.976562 3.40625 -30.125 C 3.40625 -34.507812 5.082031 -37.753906 8.4375 -39.859375 C 11.800781 -41.972656 16.050781 -43.03125 21.1875 -43.03125 Z M 21.1875 -43.03125 "/></g></g></g><g fill="#000000" fill-opacity="1"><g transform="translate(616.722061, 573.527692)"><g/></g></g><g fill="#000000" fill-opacity="1"><g transform="translate(639.282959, 573.527692)"><g><path d="M 17.21875 0 L 5.515625 0 L 5.515625 -58.125 L 17.21875 -58.125 Z M 17.21875 0 "/></g></g></g><g fill="#000000" fill-opacity="1"><g transform="translate(661.843858, 573.527692)"><g/></g></g><g fill="#000000" fill-opacity="1"><g transform="translate(684.404756, 573.527692)"><g><path d="M 16.71875 -20.453125 C 16.71875 -17.484375 16.785156 -15.320312 16.921875 -13.96875 C 17.054688 -12.613281 17.34375 -11.53125 17.78125 -10.71875 C 18.269531 -9.800781 19.015625 -9.039062 20.015625 -8.4375 C 21.015625 -7.84375 22.242188 -7.546875 23.703125 -7.546875 C 25.648438 -7.546875 27.410156 -8.085938 28.984375 -9.171875 C 30.554688 -10.253906 31.554688 -11.582031 31.984375 -13.15625 C 32.472656 -14.71875 32.71875 -18.070312 32.71875 -23.21875 L 32.71875 -42.0625 L 43.84375 -42.0625 L 43.84375 0 L 33.53125 0 L 33.53125 -6.328125 L 33.375 -6.328125 C 31.800781 -3.953125 29.769531 -2.140625 27.28125 -0.890625 C 24.789062 0.347656 22.21875 0.96875 19.5625 0.96875 C 17.1875 0.96875 14.925781 0.484375 12.78125 -0.484375 C 10.644531 -1.460938 9.007812 -2.867188 7.875 -4.703125 C 7.0625 -6.003906 6.476562 -7.4375 6.125 -9 C 5.78125 -10.570312 5.609375 -12.550781 5.609375 -14.9375 L 5.609375 -42.0625 L 16.71875 -42.0625 Z M 16.71875 -20.453125 "/></g></g></g><g fill="#000000" fill-opacity="1"><g transform="translate(733.990031, 573.527692)"><g><path d="M 21.1875 -43.03125 C 26.4375 -43.03125 30.5625 -42.160156 33.5625 -40.421875 C 36.570312 -38.691406 38.644531 -35.851562 39.78125 -31.90625 L 29.234375 -29.953125 C 28.742188 -31.691406 27.863281 -32.976562 26.59375 -33.8125 C 25.320312 -34.65625 23.546875 -35.078125 21.265625 -35.078125 C 16.234375 -35.078125 13.71875 -33.910156 13.71875 -31.578125 C 13.71875 -30.441406 14.539062 -29.535156 16.1875 -28.859375 C 17.84375 -28.179688 20.238281 -27.492188 23.375 -26.796875 C 27.21875 -25.929688 30.359375 -25.050781 32.796875 -24.15625 C 35.234375 -23.257812 37.234375 -21.929688 38.796875 -20.171875 C 40.367188 -18.410156 41.15625 -16.070312 41.15625 -13.15625 C 41.15625 -10.769531 40.492188 -8.507812 39.171875 -6.375 C 37.847656 -4.238281 35.75 -2.476562 32.875 -1.09375 C 30.007812 0.28125 26.382812 0.96875 22 0.96875 C 17.070312 0.96875 12.726562 -0.0820312 8.96875 -2.1875 C 5.207031 -4.300781 2.84375 -7.578125 1.875 -12.015625 L 12.984375 -13.71875 C 14.015625 -9.226562 17.019531 -6.984375 22 -6.984375 C 23.945312 -6.984375 25.773438 -7.320312 27.484375 -8 C 29.191406 -8.675781 30.046875 -9.878906 30.046875 -11.609375 C 30.046875 -12.742188 29.648438 -13.539062 28.859375 -14 C 28.078125 -14.457031 26.820312 -14.878906 25.09375 -15.265625 C 19.945312 -16.398438 15.9375 -17.453125 13.0625 -18.421875 C 10.195312 -19.398438 7.867188 -20.804688 6.078125 -22.640625 C 4.296875 -24.484375 3.40625 -26.976562 3.40625 -30.125 C 3.40625 -34.507812 5.082031 -37.753906 8.4375 -39.859375 C 11.800781 -41.972656 16.050781 -43.03125 21.1875 -43.03125 Z M 21.1875 -43.03125 "/></g></g></g><g fill="#000000" fill-opacity="1"><g transform="translate(779.111828, 573.527692)"><g><path d="M 21.921875 -43.03125 C 28.628906 -43.03125 33.632812 -40.847656 36.9375 -36.484375 C 40.238281 -32.128906 41.890625 -25.921875 41.890625 -17.859375 L 13.96875 -17.859375 C 14.070312 -15.046875 14.894531 -12.625 16.4375 -10.59375 C 17.976562 -8.5625 20.210938 -7.546875 23.140625 -7.546875 C 24.984375 -7.546875 26.484375 -8.019531 27.640625 -8.96875 C 28.804688 -9.914062 29.660156 -11.390625 30.203125 -13.390625 L 41.328125 -11.53125 C 39.921875 -7.414062 37.644531 -4.300781 34.5 -2.1875 C 31.363281 -0.0820312 27.519531 0.96875 22.96875 0.96875 C 16.207031 0.96875 11.09375 -1.054688 7.625 -5.109375 C 6.007812 -7.003906 4.765625 -9.382812 3.890625 -12.25 C 3.023438 -15.125 2.59375 -17.96875 2.59375 -20.78125 C 2.59375 -24.625 3.28125 -28.238281 4.65625 -31.625 C 6.039062 -35.007812 8.179688 -37.753906 11.078125 -39.859375 C 13.972656 -41.972656 17.585938 -43.03125 21.921875 -43.03125 Z M 14.203125 -24.6875 L 30.84375 -24.6875 C 30.789062 -28.09375 29.9375 -30.578125 28.28125 -32.140625 C 26.632812 -33.710938 24.703125 -34.5 22.484375 -34.5 C 19.890625 -34.5 17.859375 -33.566406 16.390625 -31.703125 C 14.929688 -29.835938 14.203125 -27.5 14.203125 -24.6875 Z M 14.203125 -24.6875 "/></g></g></g><g fill="#000000" fill-opacity="1"><g transform="translate(824.233624, 573.527692)"><g/></g></g><g fill="#000000" fill-opacity="1"><g transform="translate(846.794523, 573.527692)"><g><path d="M 17.53125 -42.0625 L 25.09375 -42.0625 L 25.09375 -33.203125 L 17.53125 -33.203125 L 17.53125 -14.6875 C 17.53125 -12.90625 17.597656 -11.582031 17.734375 -10.71875 C 17.867188 -9.851562 18.148438 -9.226562 18.578125 -8.84375 C 19.015625 -8.46875 19.695312 -8.28125 20.625 -8.28125 C 21.757812 -8.28125 23.25 -8.632812 25.09375 -9.34375 L 26.0625 -0.734375 C 24.925781 -0.191406 23.546875 0.222656 21.921875 0.515625 C 20.296875 0.816406 18.753906 0.96875 17.296875 0.96875 C 15.179688 0.96875 13.3125 0.617188 11.6875 -0.078125 C 10.0625 -0.785156 8.875 -1.734375 8.125 -2.921875 C 7.3125 -4.273438 6.804688 -5.773438 6.609375 -7.421875 C 6.421875 -9.078125 6.328125 -11.148438 6.328125 -13.640625 L 6.328125 -33.203125 L 1.21875 -33.203125 L 1.21875 -42.0625 L 6.328125 -42.0625 L 6.328125 -50.421875 L 17.53125 -57 Z M 17.53125 -42.0625 "/></g></g></g><g fill="#000000" fill-opacity="1"><g transform="translate(873.8189, 573.527692)"><g><path d="M 24.921875 -43.03125 C 29.472656 -43.03125 33.398438 -42 36.703125 -39.9375 C 40.003906 -37.882812 42.492188 -35.179688 44.171875 -31.828125 C 45.847656 -28.472656 46.6875 -24.925781 46.6875 -21.1875 C 46.6875 -17.289062 45.804688 -13.648438 44.046875 -10.265625 C 42.285156 -6.890625 39.765625 -4.171875 36.484375 -2.109375 C 33.210938 -0.0546875 29.382812 0.96875 25 0.96875 C 21.269531 0.96875 17.753906 0.195312 14.453125 -1.34375 C 11.148438 -2.882812 8.457031 -5.34375 6.375 -8.71875 C 4.289062 -12.101562 3.25 -16.394531 3.25 -21.59375 C 3.25 -25.21875 4.070312 -28.664062 5.71875 -31.9375 C 7.375 -35.21875 9.835938 -37.882812 13.109375 -39.9375 C 16.390625 -42 20.328125 -43.03125 24.921875 -43.03125 Z M 14.6875 -21.03125 C 14.6875 -16.800781 15.675781 -13.59375 17.65625 -11.40625 C 19.632812 -9.21875 22.054688 -8.125 24.921875 -8.125 C 27.796875 -8.125 30.234375 -9.203125 32.234375 -11.359375 C 34.234375 -13.523438 35.234375 -16.773438 35.234375 -21.109375 C 35.234375 -25.109375 34.269531 -28.242188 32.34375 -30.515625 C 30.425781 -32.796875 27.925781 -33.9375 24.84375 -33.9375 C 22.03125 -33.9375 19.632812 -32.828125 17.65625 -30.609375 C 15.675781 -28.390625 14.6875 -25.195312 14.6875 -21.03125 Z M 14.6875 -21.03125 "/></g></g></g><g fill="#000000" fill-opacity="1"><g transform="translate(923.404175, 573.527692)"><g/></g></g><g fill="#000000" fill-opacity="1"><g transform="translate(945.965073, 573.527692)"><g><path d="M 28.421875 -43.03125 C 33.878906 -43.03125 37.851562 -40.8125 40.34375 -36.375 C 43.976562 -40.8125 48.253906 -43.03125 53.171875 -43.03125 C 57.828125 -43.03125 61.289062 -41.753906 63.5625 -39.203125 C 65.84375 -36.660156 66.984375 -32.847656 66.984375 -27.765625 L 66.984375 0 L 55.859375 0 L 55.859375 -25.171875 C 55.859375 -28.203125 55.460938 -30.515625 54.671875 -32.109375 C 53.890625 -33.703125 52.3125 -34.5 49.9375 -34.5 C 47.65625 -34.5 45.820312 -33.710938 44.4375 -32.140625 C 43.0625 -30.578125 42.210938 -28.550781 41.890625 -26.0625 C 41.671875 -24.113281 41.5625 -22.378906 41.5625 -20.859375 L 41.5625 0 L 30.4375 0 L 30.4375 -24.765625 C 30.4375 -28.171875 30.070312 -30.644531 29.34375 -32.1875 C 28.613281 -33.726562 27.0625 -34.5 24.6875 -34.5 C 22.945312 -34.5 21.382812 -34.039062 20 -33.125 C 18.625 -32.207031 17.664062 -30.9375 17.125 -29.3125 C 16.476562 -27.363281 16.15625 -24.628906 16.15625 -21.109375 L 16.15625 0 L 5.03125 0 L 5.03125 -42.0625 L 15.34375 -42.0625 L 15.5 -36.375 C 17.238281 -38.476562 19.066406 -40.113281 20.984375 -41.28125 C 22.910156 -42.445312 25.390625 -43.03125 28.421875 -43.03125 Z M 28.421875 -43.03125 "/></g></g></g><g fill="#000000" fill-opacity="1"><g transform="translate(1018.111248, 573.527692)"><g><path d="M 22.25 -43.03125 C 27.601562 -43.03125 31.578125 -42.335938 34.171875 -40.953125 C 36.773438 -39.578125 38.414062 -37.765625 39.09375 -35.515625 C 39.769531 -33.273438 40.082031 -30.3125 40.03125 -26.625 L 39.9375 -14.375 C 39.882812 -10.53125 40.019531 -7.738281 40.34375 -6 C 40.675781 -4.269531 41.351562 -2.269531 42.375 0 L 31.421875 0 C 31.148438 -0.59375 30.660156 -2.132812 29.953125 -4.625 C 27.953125 -2.675781 25.882812 -1.253906 23.75 -0.359375 C 21.613281 0.523438 19.328125 0.96875 16.890625 0.96875 C 12.722656 0.96875 9.351562 -0.175781 6.78125 -2.46875 C 4.207031 -4.769531 2.921875 -7.765625 2.921875 -11.453125 C 2.921875 -14.535156 3.691406 -16.984375 5.234375 -18.796875 C 6.773438 -20.609375 8.65625 -21.921875 10.875 -22.734375 C 13.09375 -23.546875 15.71875 -24.25 18.75 -24.84375 C 23.40625 -25.707031 26.84375 -26.570312 29.0625 -27.4375 L 29.0625 -29.234375 C 29.0625 -31.066406 28.519531 -32.398438 27.4375 -33.234375 C 26.351562 -34.078125 24.378906 -34.5 21.515625 -34.5 C 19.296875 -34.5 17.644531 -34.050781 16.5625 -33.15625 C 15.476562 -32.269531 14.664062 -30.960938 14.125 -29.234375 L 4.0625 -31.09375 C 5.144531 -35.207031 7.09375 -38.222656 9.90625 -40.140625 C 12.71875 -42.066406 16.832031 -43.03125 22.25 -43.03125 Z M 22.078125 -18.421875 L 20.21875 -18.03125 C 16.101562 -17.15625 14.046875 -15.367188 14.046875 -12.671875 C 14.046875 -11.046875 14.625 -9.675781 15.78125 -8.5625 C 16.945312 -7.457031 18.425781 -6.90625 20.21875 -6.90625 C 21.675781 -6.90625 23.132812 -7.28125 24.59375 -8.03125 C 26.0625 -8.789062 27.203125 -9.796875 28.015625 -11.046875 C 28.710938 -12.179688 29.0625 -14.128906 29.0625 -16.890625 L 29.0625 -20.21875 C 26.957031 -19.5625 24.628906 -18.960938 22.078125 -18.421875 Z M 22.078125 -18.421875 "/></g></g></g><g fill="#000000" fill-opacity="1"><g transform="translate(1063.233045, 573.527692)"><g><path d="M 16.5625 -27.28125 L 29.640625 -42.0625 L 43.359375 -42.0625 L 28.984375 -26.703125 L 44.328125 0 L 32.3125 0 L 21.765625 -18.921875 L 16.5625 -13.484375 L 16.5625 0 L 5.4375 0 L 5.4375 -58.125 L 16.5625 -58.125 Z M 16.5625 -27.28125 "/></g></g></g><g fill="#000000" fill-opacity="1"><g transform="translate(1108.354904, 573.527692)"><g><path d="M 21.921875 -43.03125 C 28.628906 -43.03125 33.632812 -40.847656 36.9375 -36.484375 C 40.238281 -32.128906 41.890625 -25.921875 41.890625 -17.859375 L 13.96875 -17.859375 C 14.070312 -15.046875 14.894531 -12.625 16.4375 -10.59375 C 17.976562 -8.5625 20.210938 -7.546875 23.140625 -7.546875 C 24.984375 -7.546875 26.484375 -8.019531 27.640625 -8.96875 C 28.804688 -9.914062 29.660156 -11.390625 30.203125 -13.390625 L 41.328125 -11.53125 C 39.921875 -7.414062 37.644531 -4.300781 34.5 -2.1875 C 31.363281 -0.0820312 27.519531 0.96875 22.96875 0.96875 C 16.207031 0.96875 11.09375 -1.054688 7.625 -5.109375 C 6.007812 -7.003906 4.765625 -9.382812 3.890625 -12.25 C 3.023438 -15.125 2.59375 -17.96875 2.59375 -20.78125 C 2.59375 -24.625 3.28125 -28.238281 4.65625 -31.625 C 6.039062 -35.007812 8.179688 -37.753906 11.078125 -39.859375 C 13.972656 -41.972656 17.585938 -43.03125 21.921875 -43.03125 Z M 14.203125 -24.6875 L 30.84375 -24.6875 C 30.789062 -28.09375 29.9375 -30.578125 28.28125 -32.140625 C 26.632812 -33.710938 24.703125 -34.5 22.484375 -34.5 C 19.890625 -34.5 17.859375 -33.566406 16.390625 -31.703125 C 14.929688 -29.835938 14.203125 -27.5 14.203125 -24.6875 Z M 14.203125 -24.6875 "/></g></g></g><g fill="#000000" fill-opacity="1"><g transform="translate(52.943107, 646.452727)"><g><path d="M 16.484375 -37.1875 C 19.890625 -41.082031 23.972656 -43.03125 28.734375 -43.03125 C 31.984375 -43.03125 34.945312 -42.226562 37.625 -40.625 C 40.3125 -39.03125 42.453125 -36.609375 44.046875 -33.359375 C 45.640625 -30.117188 46.4375 -26.144531 46.4375 -21.4375 C 46.4375 -16.5625 45.609375 -12.445312 43.953125 -9.09375 C 42.304688 -5.738281 40.144531 -3.222656 37.46875 -1.546875 C 34.789062 0.128906 31.910156 0.96875 28.828125 0.96875 C 26.710938 0.96875 24.445312 0.398438 22.03125 -0.734375 C 19.625 -1.867188 17.53125 -3.679688 15.75 -6.171875 L 15.75 0 L 5.359375 0 L 5.359375 -58.125 L 16.484375 -58.125 Z M 16.40625 -21.921875 C 16.40625 -19.484375 16.578125 -17.492188 16.921875 -15.953125 C 17.273438 -14.410156 17.859375 -13.070312 18.671875 -11.9375 C 20.617188 -9.226562 23.109375 -7.875 26.140625 -7.875 C 28.523438 -7.875 30.59375 -8.898438 32.34375 -10.953125 C 34.101562 -13.015625 34.984375 -16.347656 34.984375 -20.953125 C 34.984375 -25.054688 34.238281 -28.335938 32.75 -30.796875 C 31.269531 -33.265625 28.90625 -34.5 25.65625 -34.5 C 22.945312 -34.5 20.726562 -33.429688 19 -31.296875 C 17.269531 -29.160156 16.40625 -26.035156 16.40625 -21.921875 Z M 16.40625 -21.921875 "/></g></g></g><g fill="#000000" fill-opacity="1"><g transform="translate(102.528382, 646.452727)"><g><path d="M 21.921875 -43.03125 C 28.628906 -43.03125 33.632812 -40.847656 36.9375 -36.484375 C 40.238281 -32.128906 41.890625 -25.921875 41.890625 -17.859375 L 13.96875 -17.859375 C 14.070312 -15.046875 14.894531 -12.625 16.4375 -10.59375 C 17.976562 -8.5625 20.210938 -7.546875 23.140625 -7.546875 C 24.984375 -7.546875 26.484375 -8.019531 27.640625 -8.96875 C 28.804688 -9.914062 29.660156 -11.390625 30.203125 -13.390625 L 41.328125 -11.53125 C 39.921875 -7.414062 37.644531 -4.300781 34.5 -2.1875 C 31.363281 -0.0820312 27.519531 0.96875 22.96875 0.96875 C 16.207031 0.96875 11.09375 -1.054688 7.625 -5.109375 C 6.007812 -7.003906 4.765625 -9.382812 3.890625 -12.25 C 3.023438 -15.125 2.59375 -17.96875 2.59375 -20.78125 C 2.59375 -24.625 3.28125 -28.238281 4.65625 -31.625 C 6.039062 -35.007812 8.179688 -37.753906 11.078125 -39.859375 C 13.972656 -41.972656 17.585938 -43.03125 21.921875 -43.03125 Z M 14.203125 -24.6875 L 30.84375 -24.6875 C 30.789062 -28.09375 29.9375 -30.578125 28.28125 -32.140625 C 26.632812 -33.710938 24.703125 -34.5 22.484375 -34.5 C 19.890625 -34.5 17.859375 -33.566406 16.390625 -31.703125 C 14.929688 -29.835938 14.203125 -27.5 14.203125 -24.6875 Z M 14.203125 -24.6875 "/></g></g></g><g fill="#000000" fill-opacity="1"><g transform="translate(147.650179, 646.452727)"><g><path d="M 22.25 -43.03125 C 27.601562 -43.03125 31.578125 -42.335938 34.171875 -40.953125 C 36.773438 -39.578125 38.414062 -37.765625 39.09375 -35.515625 C 39.769531 -33.273438 40.082031 -30.3125 40.03125 -26.625 L 39.9375 -14.375 C 39.882812 -10.53125 40.019531 -7.738281 40.34375 -6 C 40.675781 -4.269531 41.351562 -2.269531 42.375 0 L 31.421875 0 C 31.148438 -0.59375 30.660156 -2.132812 29.953125 -4.625 C 27.953125 -2.675781 25.882812 -1.253906 23.75 -0.359375 C 21.613281 0.523438 19.328125 0.96875 16.890625 0.96875 C 12.722656 0.96875 9.351562 -0.175781 6.78125 -2.46875 C 4.207031 -4.769531 2.921875 -7.765625 2.921875 -11.453125 C 2.921875 -14.535156 3.691406 -16.984375 5.234375 -18.796875 C 6.773438 -20.609375 8.65625 -21.921875 10.875 -22.734375 C 13.09375 -23.546875 15.71875 -24.25 18.75 -24.84375 C 23.40625 -25.707031 26.84375 -26.570312 29.0625 -27.4375 L 29.0625 -29.234375 C 29.0625 -31.066406 28.519531 -32.398438 27.4375 -33.234375 C 26.351562 -34.078125 24.378906 -34.5 21.515625 -34.5 C 19.296875 -34.5 17.644531 -34.050781 16.5625 -33.15625 C 15.476562 -32.269531 14.664062 -30.960938 14.125 -29.234375 L 4.0625 -31.09375 C 5.144531 -35.207031 7.09375 -38.222656 9.90625 -40.140625 C 12.71875 -42.066406 16.832031 -43.03125 22.25 -43.03125 Z M 22.078125 -18.421875 L 20.21875 -18.03125 C 16.101562 -17.15625 14.046875 -15.367188 14.046875 -12.671875 C 14.046875 -11.046875 14.625 -9.675781 15.78125 -8.5625 C 16.945312 -7.457031 18.425781 -6.90625 20.21875 -6.90625 C 21.675781 -6.90625 23.132812 -7.28125 24.59375 -8.03125 C 26.0625 -8.789062 27.203125 -9.796875 28.015625 -11.046875 C 28.710938 -12.179688 29.0625 -14.128906 29.0625 -16.890625 L 29.0625 -20.21875 C 26.957031 -19.5625 24.628906 -18.960938 22.078125 -18.421875 Z M 22.078125 -18.421875 "/></g></g></g><g fill="#000000" fill-opacity="1"><g transform="translate(192.771976, 646.452727)"><g><path d="M 8.4375 -36.703125 C 12.070312 -40.921875 17.21875 -43.03125 23.875 -43.03125 C 33.882812 -43.03125 40.132812 -38.566406 42.625 -29.640625 L 31.65625 -27.6875 C 30.738281 -32.125 28.195312 -34.34375 24.03125 -34.34375 C 21.21875 -34.34375 18.984375 -33.367188 17.328125 -31.421875 C 15.679688 -29.472656 14.859375 -26.304688 14.859375 -21.921875 C 14.859375 -17.640625 15.5625 -14.269531 16.96875 -11.8125 C 18.375 -9.351562 20.78125 -8.125 24.1875 -8.125 C 26.40625 -8.125 28.175781 -8.785156 29.5 -10.109375 C 30.832031 -11.429688 31.742188 -13.445312 32.234375 -16.15625 L 43.1875 -14.28125 C 40.914062 -4.113281 34.394531 0.96875 23.625 0.96875 C 17.238281 0.96875 12.3125 -0.976562 8.84375 -4.875 C 7.0625 -6.875 5.707031 -9.304688 4.78125 -12.171875 C 3.863281 -15.046875 3.40625 -18 3.40625 -21.03125 C 3.40625 -24.164062 3.835938 -27.085938 4.703125 -29.796875 C 5.578125 -32.503906 6.820312 -34.804688 8.4375 -36.703125 Z M 8.4375 -36.703125 "/></g></g></g><g fill="#000000" fill-opacity="1"><g transform="translate(237.893772, 646.452727)"><g><path d="M 16.890625 -36.703125 C 18.785156 -38.921875 20.773438 -40.53125 22.859375 -41.53125 C 24.941406 -42.53125 27.203125 -43.03125 29.640625 -43.03125 C 31.960938 -43.03125 34.03125 -42.675781 35.84375 -41.96875 C 37.65625 -41.269531 39.15625 -40.351562 40.34375 -39.21875 C 42.78125 -36.832031 44 -32.445312 44 -26.0625 L 44 0 L 32.875 0 L 32.875 -23.703125 C 32.875 -26.242188 32.710938 -28.269531 32.390625 -29.78125 C 32.066406 -31.300781 31.414062 -32.46875 30.4375 -33.28125 C 29.46875 -34.09375 27.984375 -34.5 25.984375 -34.5 C 22.460938 -34.5 20.066406 -33.363281 18.796875 -31.09375 C 17.523438 -28.820312 16.890625 -25.789062 16.890625 -22 L 16.890625 0 L 5.765625 0 L 5.765625 -58.125 L 16.890625 -58.125 Z M 16.890625 -36.703125 "/></g></g></g><g fill="#000000" fill-opacity="1"><g transform="translate(287.479047, 646.452727)"><g><path d="M 21.921875 -43.03125 C 28.628906 -43.03125 33.632812 -40.847656 36.9375 -36.484375 C 40.238281 -32.128906 41.890625 -25.921875 41.890625 -17.859375 L 13.96875 -17.859375 C 14.070312 -15.046875 14.894531 -12.625 16.4375 -10.59375 C 17.976562 -8.5625 20.210938 -7.546875 23.140625 -7.546875 C 24.984375 -7.546875 26.484375 -8.019531 27.640625 -8.96875 C 28.804688 -9.914062 29.660156 -11.390625 30.203125 -13.390625 L 41.328125 -11.53125 C 39.921875 -7.414062 37.644531 -4.300781 34.5 -2.1875 C 31.363281 -0.0820312 27.519531 0.96875 22.96875 0.96875 C 16.207031 0.96875 11.09375 -1.054688 7.625 -5.109375 C 6.007812 -7.003906 4.765625 -9.382812 3.890625 -12.25 C 3.023438 -15.125 2.59375 -17.96875 2.59375 -20.78125 C 2.59375 -24.625 3.28125 -28.238281 4.65625 -31.625 C 6.039062 -35.007812 8.179688 -37.753906 11.078125 -39.859375 C 13.972656 -41.972656 17.585938 -43.03125 21.921875 -43.03125 Z M 14.203125 -24.6875 L 30.84375 -24.6875 C 30.789062 -28.09375 29.9375 -30.578125 28.28125 -32.140625 C 26.632812 -33.710938 24.703125 -34.5 22.484375 -34.5 C 19.890625 -34.5 17.859375 -33.566406 16.390625 -31.703125 C 14.929688 -29.835938 14.203125 -27.5 14.203125 -24.6875 Z M 14.203125 -24.6875 "/></g></g></g><g fill="#000000" fill-opacity="1"><g transform="translate(332.600844, 646.452727)"><g><path d="M 21.1875 -43.03125 C 26.4375 -43.03125 30.5625 -42.160156 33.5625 -40.421875 C 36.570312 -38.691406 38.644531 -35.851562 39.78125 -31.90625 L 29.234375 -29.953125 C 28.742188 -31.691406 27.863281 -32.976562 26.59375 -33.8125 C 25.320312 -34.65625 23.546875 -35.078125 21.265625 -35.078125 C 16.234375 -35.078125 13.71875 -33.910156 13.71875 -31.578125 C 13.71875 -30.441406 14.539062 -29.535156 16.1875 -28.859375 C 17.84375 -28.179688 20.238281 -27.492188 23.375 -26.796875 C 27.21875 -25.929688 30.359375 -25.050781 32.796875 -24.15625 C 35.234375 -23.257812 37.234375 -21.929688 38.796875 -20.171875 C 40.367188 -18.410156 41.15625 -16.070312 41.15625 -13.15625 C 41.15625 -10.769531 40.492188 -8.507812 39.171875 -6.375 C 37.847656 -4.238281 35.75 -2.476562 32.875 -1.09375 C 30.007812 0.28125 26.382812 0.96875 22 0.96875 C 17.070312 0.96875 12.726562 -0.0820312 8.96875 -2.1875 C 5.207031 -4.300781 2.84375 -7.578125 1.875 -12.015625 L 12.984375 -13.71875 C 14.015625 -9.226562 17.019531 -6.984375 22 -6.984375 C 23.945312 -6.984375 25.773438 -7.320312 27.484375 -8 C 29.191406 -8.675781 30.046875 -9.878906 30.046875 -11.609375 C 30.046875 -12.742188 29.648438 -13.539062 28.859375 -14 C 28.078125 -14.457031 26.820312 -14.878906 25.09375 -15.265625 C 19.945312 -16.398438 15.9375 -17.453125 13.0625 -18.421875 C 10.195312 -19.398438 7.867188 -20.804688 6.078125 -22.640625 C 4.296875 -24.484375 3.40625 -26.976562 3.40625 -30.125 C 3.40625 -34.507812 5.082031 -37.753906 8.4375 -39.859375 C 11.800781 -41.972656 16.050781 -43.03125 21.1875 -43.03125 Z M 21.1875 -43.03125 "/></g></g></g></svg>